<svg width="521" height="469" viewBox="0 0 521 469" fill="none" xmlns="http://www.w3.org/2000/svg" style="width: 100%; height: 100%;">
<g clip-path="url(#clip0_35_1837)">
<path d="M293.308 46.753C292.55 35.767 301.085 30.602 303.807 29.456C311.204 26.342 319.612 26.127 327.452 27.846C332.923 29.046 338.372 31.283 342.158 35.41C345.627 39.192 347.416 44.276 348.043 49.369C348.507 53.134 348.381 56.966 347.747 60.706C346.061 70.659 340.664 79.94 332.848 86.328C332.062 86.97 331.103 87.62 330.114 87.394C329.507 87.255 329.024 86.807 328.59 86.361C324.931 82.61 322.507 77.862 319.911 73.31C313.527 62.115 305.456 51.39 293.308 46.753Z" fill="#010101" stroke="#010101" stroke-width="1.5" stroke-linecap="round" stroke-linejoin="round"></path>
<path d="M333.936 75.215C335.333 76.203 337.476 76.142 338.829 75.834C343.018 74.88 343.106 68.64 342.316 66.696C341.525 64.751 340.116 63.091 338.434 61.835C337.763 61.334 335.084 60.405 332.975 61.836C332.01 62.491 331.419 63.567 330.794 64.268C330.103 61.019 330.446 57.652 330.753 54.345C331.061 51.038 329.039 40.066 322.937 38.928C319.251 38.241 315.54 39.354 311.791 39.385C307.141 39.423 302.293 37.073 298.021 38.911C294.284 40.519 293.883 42.959 292.91 46.909C290.777 55.565 290.888 64.655 292.171 73.477C292.636 76.676 293.276 79.916 294.849 82.74C297.574 87.631 303.155 90.785 308.75 90.597C309.208 95.485 309.665 100.374 310.123 105.262C310.354 107.73 310.692 110.428 312.494 112.13C314.362 113.895 317.202 114.023 319.77 113.966C324.291 113.865 328.807 113.504 333.287 112.885C334.278 112.748 335.319 112.577 336.097 111.948C337.489 110.823 337.51 108.744 337.389 106.959C336.647 96.022 335.131 85.147 333.938 75.216L333.936 75.215Z" fill="white" stroke="#010101" stroke-width="1.5" stroke-linecap="round" stroke-linejoin="round"></path>
<path d="M322.477 88.115C318.248 90.234 313.428 91.154 308.716 90.744Z" fill="white"></path>
<path d="M322.477 88.115C318.248 90.234 313.428 91.154 308.716 90.744" stroke="#010101" stroke-width="1.5" stroke-linecap="round" stroke-linejoin="round"></path>
<path d="M305.246 57.864C304.235 60.01 303.28 62.182 302.38 64.377C302.15 64.937 301.921 65.515 301.91 66.12C301.894 67.027 302.845 68.29 306.034 70.015" fill="white"></path>
<path d="M305.246 57.864C304.235 60.01 303.28 62.182 302.38 64.377C302.15 64.937 301.921 65.515 301.91 66.12C301.894 67.027 302.845 68.29 306.034 70.015" stroke="#010101" stroke-width="1.5" stroke-linecap="round" stroke-linejoin="round"></path>
<path d="M335.745 64.966C336.859 65.048 337.926 65.641 338.584 66.545C339.242 67.449 339.479 68.645 339.216 69.731" fill="white"></path>
<path d="M335.745 64.966C336.859 65.048 337.926 65.641 338.584 66.545C339.242 67.449 339.479 68.645 339.216 69.731" stroke="#010101" stroke-width="1.5" stroke-linecap="round" stroke-linejoin="round"></path>
<path d="M301.093 55.329C299.85 54.619 294.455 54.496 293.186 54.819C291.917 55.142 290.73 56.027 290.345 57.278C290.197 57.758 290.171 58.265 290.157 58.767C290.125 59.851 290.158 61.001 290.734 61.92C291.45 63.063 292.837 63.586 294.16 63.852C295.879 64.198 297.66 64.238 299.393 63.97C300.167 63.85 301.003 63.714 301.583 63.187C303.346 61.584 303.975 56.973 301.095 55.329H301.093Z" fill="white" stroke="#010101" stroke-width="1.5" stroke-linecap="round" stroke-linejoin="round"></path>
<path d="M319.153 55.329C317.91 54.619 312.515 54.496 311.246 54.819C309.977 55.142 308.79 56.027 308.405 57.278C308.257 57.758 308.231 58.265 308.217 58.767C308.185 59.851 308.218 61.001 308.794 61.92C309.51 63.063 310.897 63.586 312.22 63.852C313.939 64.198 315.72 64.238 317.453 63.97C318.227 63.85 319.063 63.714 319.643 63.187C321.406 61.584 322.035 56.973 319.155 55.329H319.153Z" fill="white" stroke="#010101" stroke-width="1.5" stroke-linecap="round" stroke-linejoin="round"></path>
<path d="M320.981 57.864C325.683 57.864 330.207 58.008 334.87 58.46C335.743 58.545 336.748 58.798 337.095 59.603" stroke="#010101" stroke-width="1.5" stroke-linecap="round" stroke-linejoin="round"></path>
<path d="M308.475 57.041C306.035 55.007 302.486 56.798 302.504 56.778Z" fill="white"></path>
<path d="M308.475 57.041C306.035 55.007 302.486 56.798 302.504 56.778" stroke="#010101" stroke-width="1.5" stroke-linecap="round" stroke-linejoin="round"></path>
<path d="M160.139 116.856C153.196 108.776 147.31 102.105 140.367 94.026C139.301 92.785 136.844 90.547 135.459 92.064C134.472 93.144 135.759 97.432 141.644 103.256C135.804 96.872 133.024 94.135 127.184 87.751C126.446 86.944 125.507 86.063 124.528 86.291C123.525 86.524 123.096 87.888 123.376 88.995C123.656 90.102 124.43 90.996 125.174 91.835C129.444 96.649 129.33 97.354 133.6 102.168C128.183 95.812 127.855 94.856 121.758 89.284C120.748 88.361 119.346 87.4 118.288 88.112C116.001 90.138 120.057 94.161 123.148 97.355C124.919 99.185 126.624 100.907 130.954 105.1C126.478 101.085 124.853 99.207 120.369 95.204C119.527 94.452 118.618 93.668 117.562 93.525C116.506 93.382 115.33 94.211 115.463 95.361C115.547 96.093 116.099 96.67 116.614 97.175C121.389 101.857 122.74 103.96 127.515 108.642C124.001 105.295 123.62 104.896 119.602 102.348C118.409 101.591 116.626 101.005 115.98 102.246C115.383 103.393 116.472 104.794 117.451 105.694C127.088 114.546 134.736 120.375 144.373 129.227" fill="white"></path>
<path d="M160.139 116.856C153.196 108.776 147.31 102.105 140.367 94.026C139.301 92.785 136.844 90.547 135.459 92.064C134.472 93.144 135.759 97.432 141.644 103.256C135.804 96.872 133.024 94.135 127.184 87.751C126.446 86.944 125.507 86.063 124.528 86.291C123.525 86.524 123.096 87.888 123.376 88.995C123.656 90.102 124.43 90.996 125.174 91.835C129.444 96.649 129.33 97.354 133.6 102.168C128.183 95.812 127.855 94.856 121.758 89.284C120.748 88.361 119.346 87.4 118.288 88.112C116.001 90.138 120.057 94.161 123.148 97.355C124.919 99.185 126.624 100.907 130.954 105.1C126.478 101.085 124.853 99.207 120.369 95.204C119.527 94.452 118.618 93.668 117.562 93.525C116.506 93.382 115.33 94.211 115.463 95.361C115.547 96.093 116.099 96.67 116.614 97.175C121.389 101.857 122.74 103.96 127.515 108.642C124.001 105.295 123.62 104.896 119.602 102.348C118.409 101.591 116.626 101.005 115.98 102.246C115.383 103.393 116.472 104.794 117.451 105.694C127.088 114.546 134.736 120.375 144.373 129.227" stroke="#010101" stroke-width="1.5" stroke-linecap="round" stroke-linejoin="round"></path>
<path d="M141.644 103.255C140.532 105.044 139.569 106.957 139.126 109.016C138.683 111.075 138.791 113.302 139.737 115.184" stroke="#010101" stroke-width="1.5" stroke-linecap="round" stroke-linejoin="round"></path>
<path d="M171.316 436.627C165.284 427.717 157.776 419.598 150.294 411.865C142.811 404.133 133.769 397.616 123.429 394.641C120.893 393.911 118.165 393.403 115.639 394.165C111.485 395.419 108.998 399.82 108.352 404.111C107.385 410.526 109.569 416.973 112.055 422.966C117.637 436.424 129.049 452.892 138.863 465.276C153.286 465.276 177.451 465.155 193.933 465.278C197.274 465.303 183.373 451.021 171.317 436.627H171.316Z" fill="#55D087" stroke="#010101" stroke-width="1.5" stroke-linecap="round" stroke-linejoin="round"></path>
<path d="M223.106 435.814C213.673 419.244 202.762 403.515 190.545 388.876C181.643 378.209 171.214 367.621 157.677 364.492C152.823 363.37 147.086 363.529 143.656 367.143C140.883 370.064 140.378 374.458 140.588 378.48C141.04 387.119 144.096 395.427 147.919 403.186C156.146 419.882 167.936 434.518 179.627 449.002C182.768 452.893 185.909 456.784 189.049 460.675C190.464 462.428 191.937 464.23 193.932 465.278C198.626 467.745 204.35 465.275 208.799 462.389C213.814 459.135 218.562 455.201 221.569 450.035C224.576 444.868 224.848 438.875 223.106 435.814Z" fill="#55D087" stroke="#010101" stroke-width="1.5" stroke-linecap="round" stroke-linejoin="round"></path>
<path d="M165.725 464.848C151.356 441.993 131.124 415.593 113.361 395.263" stroke="#010101" stroke-width="1.5" stroke-linecap="round" stroke-linejoin="round"></path>
<path d="M143.649 433.214C134.923 430.74 122.758 428.494 113.823 426.933" stroke="#010101" stroke-width="1.5" stroke-linecap="round" stroke-linejoin="round"></path>
<path d="M137.573 402.201C136.297 407.621 134.95 414.012 133.673 419.433" stroke="#010101" stroke-width="1.5" stroke-linecap="round" stroke-linejoin="round"></path>
<path d="M206.984 446.098C186.641 420.649 165.79 392.667 145.447 367.218" stroke="#010101" stroke-width="1.5" stroke-linecap="round" stroke-linejoin="round"></path>
<path d="M184.064 417.361C172.738 414.057 161.412 410.753 150.086 407.449" stroke="#010101" stroke-width="1.5" stroke-linecap="round" stroke-linejoin="round"></path>
<path d="M184.064 383.464C181.676 392.733 179.829 398.59 177.45 407.824" stroke="#010101" stroke-width="1.5" stroke-linecap="round" stroke-linejoin="round"></path>
<path d="M56.3399 272.168C50.3119 272.816 46.0469 278.708 44.7519 284.631C42.3299 295.709 48.5099 308.135 58.9089 312.657C62.2679 314.118 66.7659 314.54 69.0789 311.7C70.5279 309.92 70.5629 307.135 69.1589 305.319C67.7549 303.503 65.0499 302.837 62.9629 303.793C60.9719 304.705 59.7599 306.81 59.2599 308.943C57.8159 315.103 61.5839 321.639 66.9869 324.933C72.3899 328.226 79.0419 328.801 85.3489 328.291" stroke="#010101" stroke-width="1.5" stroke-linecap="round" stroke-linejoin="round"></path>
<path d="M519.158 316.861L512.184 467.983L294.273 467.197L306.032 316.861H519.158Z" fill="white" stroke="#010101" stroke-width="1.5" stroke-linecap="round" stroke-linejoin="round"></path>
<path d="M306.032 316.861H519.158L520.207 290.386L308.149 289.934L306.032 316.861Z" fill="#010101" stroke="#010101" stroke-width="1.5" stroke-linecap="round" stroke-linejoin="round"></path>
<path d="M163.214 57.539C154.818 47.574 145.712 38.207 135.987 29.534C135.371 28.985 134.691 28.41 133.868 28.342C132.959 28.266 132.132 28.825 131.396 29.365C125.933 33.375 120.729 37.736 115.826 42.414C102.639 29.287 89.452 16.16 76.264 3.033" stroke="#010101" stroke-width="1.5" stroke-linecap="round" stroke-linejoin="round"></path>
<path d="M97.29 3.775C90.028 2.108 82.617 1.094 75.175 0.75C75.641 8.519 75.945 16.298 76.089 24.079" stroke="#010101" stroke-width="1.5" stroke-linecap="round" stroke-linejoin="round"></path>
<path d="M152.558 63.153C155.414 63.194 157.002 63.131 159.895 63.409C159.233 69.12 160.094 75.986 159.204 81.496C159.107 82.093 151.711 81.392 151.711 81.392C152.35 75.776 152.799 70.559 152.559 63.152L152.558 63.153Z" fill="#FF8B37" stroke="#010101" stroke-width="1.5" stroke-linecap="round" stroke-linejoin="round"></path>
<path d="M137.015 42.552C136.808 56.257 137.205 65.139 136.957 81.531C134.999 81.138 132.086 81.576 130.128 81.183C130.285 70.801 130.763 54.301 130.92 43.919C130.957 41.476 131.028 43.485 137.015 42.552Z" fill="#FF8B37" stroke="#010101" stroke-width="1.5" stroke-linecap="round" stroke-linejoin="round"></path>
<path d="M117.087 51.818C116.924 61.273 116.526 70.723 115.892 80.158C113.903 80.131 111.046 80.452 109.112 79.987C108.74 71.686 110.383 51.971 110.383 51.971C110.383 51.971 115.328 51.863 117.087 51.818Z" fill="#FF8B37" stroke="#010101" stroke-width="1.5" stroke-linecap="round" stroke-linejoin="round"></path>
<path d="M93.624 31.264C94.369 47.436 94.664 63.219 94.37 80.468C92.021 80.637 89.581 80.213 86.921 80.262C86.161 42.516 86.345 31.166 86.345 31.166C86.345 31.166 90.324 30.801 93.624 31.264Z" fill="#FF8B37" stroke="#010101" stroke-width="1.5" stroke-linecap="round" stroke-linejoin="round"></path>
<path d="M125.614 244.911L130.307 184.324L5.611 186.786L0.75 247.693L125.614 244.911Z" fill="#E3E3FF" stroke="#010101" stroke-width="1.5" stroke-linecap="round" stroke-linejoin="round"></path>
<path d="M58.949 208.234C77.496 206.78 114.687 205.551 114.687 205.551Z" fill="white"></path>
<path d="M58.949 208.234C77.496 206.78 114.687 205.551 114.687 205.551" stroke="#010101" stroke-width="1.5" stroke-linecap="round" stroke-linejoin="round"></path>
<path d="M58.444 220.311C65.683 219.712 80.162 219.527 80.162 219.527Z" fill="white"></path>
<path d="M58.444 220.311C65.683 219.712 80.162 219.527 80.162 219.527" stroke="#010101" stroke-width="1.5" stroke-linecap="round" stroke-linejoin="round"></path>
<path d="M29.2871 198.612C24.8451 199.082 20.7461 201.648 18.0551 205.213C15.3651 208.778 14.0321 213.268 13.9291 217.734C13.8771 219.997 14.1371 222.301 15.0211 224.385C16.0091 226.715 17.7371 228.671 19.7021 230.265C22.7791 232.76 26.5311 234.457 30.4641 234.92C34.3981 235.383 38.5021 234.58 41.8711 232.498C45.7021 230.131 48.4631 226.161 49.5431 221.789C50.6241 217.418 50.0571 212.692 48.1551 208.611C47.1341 206.42 45.7171 204.38 43.8221 202.88C39.5321 199.483 35.6381 198.206 29.2861 198.613L29.2871 198.612Z" fill="white" stroke="#010101" stroke-width="1.5" stroke-linecap="round" stroke-linejoin="round"></path>
<path d="M37.3581 209.817C36.4481 208.286 34.5731 207.455 32.7981 207.603C31.0231 207.751 29.3881 208.788 28.3111 210.207C27.3021 211.536 26.7941 213.519 27.8321 214.825C28.5021 215.668 29.6361 215.994 30.7101 216.073C31.7841 216.152 32.8711 216.032 33.9341 216.205C36.0401 216.547 37.9001 218.118 38.5911 220.137C38.9881 221.296 38.9881 222.661 38.2861 223.665C37.9101 224.203 37.3631 224.599 36.7901 224.921C33.5411 226.745 29.1351 226.207 26.4221 223.654" fill="white"></path>
<path d="M37.3581 209.817C36.4481 208.286 34.5731 207.455 32.7981 207.603C31.0231 207.751 29.3881 208.788 28.3111 210.207C27.3021 211.536 26.7941 213.519 27.8321 214.825C28.5021 215.668 29.6361 215.994 30.7101 216.073C31.7841 216.152 32.8711 216.032 33.9341 216.205C36.0401 216.547 37.9001 218.118 38.5911 220.137C38.9881 221.296 38.9881 222.661 38.2861 223.665C37.9101 224.203 37.3631 224.599 36.7901 224.921C33.5411 226.745 29.1351 226.207 26.4221 223.654" stroke="#010101" stroke-width="1.5" stroke-linecap="round" stroke-linejoin="round"></path>
<path d="M32.458 226.344C32.473 227.962 32.4 229.581 32.239 231.192Z" fill="white"></path>
<path d="M32.458 226.344C32.473 227.962 32.4 229.581 32.239 231.192" stroke="#010101" stroke-width="1.5" stroke-linecap="round" stroke-linejoin="round"></path>
<path d="M33.7321 202.509C33.6441 204.07 33.5561 205.631 33.4691 207.192Z" fill="white"></path>
<path d="M33.7321 202.509C33.6441 204.07 33.5561 205.631 33.4691 207.192" stroke="#010101" stroke-width="1.5" stroke-linecap="round" stroke-linejoin="round"></path>
<path d="M360.914 264.955L370.853 231.191L278.561 222.892L264.895 250.047L285.483 271.167L335.179 272.762L360.914 264.955Z" fill="#010101" stroke="#010101" stroke-width="1.5" stroke-linecap="round" stroke-linejoin="round"></path>
<path d="M436.99 272.762C439.794 277.836 445.668 280.334 451.279 281.794C456.89 283.254 462.843 284.115 467.663 287.336C468.141 287.655 468.629 288.028 468.826 288.567C469.153 289.46 468.517 290.473 467.668 290.901C466.819 291.329 465.825 291.321 464.875 291.304C453.214 291.092 441.553 290.881 429.892 290.669C427.537 290.626 425.033 290.539 423.08 289.222C421.841 288.386 420.953 287.134 420.109 285.9C417.865 282.618 415.731 279.261 413.711 275.837" fill="white"></path>
<path d="M436.99 272.762C439.794 277.836 445.668 280.334 451.279 281.794C456.89 283.254 462.843 284.115 467.663 287.336C468.141 287.655 468.629 288.028 468.826 288.567C469.153 289.46 468.517 290.473 467.668 290.901C466.819 291.329 465.825 291.321 464.875 291.304C453.214 291.092 441.553 290.881 429.892 290.669C427.537 290.626 425.033 290.539 423.08 289.222C421.841 288.386 420.953 287.134 420.109 285.9C417.865 282.618 415.731 279.261 413.711 275.837" stroke="#010101" stroke-width="1.5" stroke-linecap="round" stroke-linejoin="round"></path>
<path d="M342.014 101.631C329.162 106.486 315.566 108.249 302.953 102.8C298.822 116.522 298.265 129.448 297.451 143.755C296.462 161.126 295.473 178.522 295.934 195.915C296.247 207.7 297.226 219.467 298.866 231.141C316.855 232.878 334.905 233.977 352.972 234.436C362.765 218.495 363.657 198.696 362.326 180.034C360.476 154.098 353.442 127.865 342.013 101.631H342.014Z" fill="white" stroke="#010101" stroke-width="1.5" stroke-linecap="round" stroke-linejoin="round"></path>
<path d="M329.685 111.365C327.498 108.808 325.03 106.491 322.341 104.468C319.571 105.781 316.958 107.426 314.613 109.609C315.961 112.128 317.308 114.646 318.656 117.165C319.019 117.843 319.386 118.533 319.544 119.286C319.81 120.555 319.456 121.861 319.148 123.121C317.5 129.875 309.146 208.68 309.146 208.68C309.146 208.68 315.792 219.211 323.432 234.857C331.416 221.78 337.665 211.052 337.818 210.253C338.077 208.903 323.853 120.229 324.094 118.738C324.489 116.296 329.881 112.679 329.684 111.365H329.685Z" fill="#FF8B37" stroke="#010101" stroke-width="1.5" stroke-linecap="round" stroke-linejoin="round"></path>
<path d="M355.074 234.63C335.797 234.302 316.536 233.054 297.378 230.89Z" fill="white"></path>
<path d="M355.074 234.63C335.797 234.302 316.536 233.054 297.378 230.89" stroke="#010101" stroke-width="1.5" stroke-linecap="round" stroke-linejoin="round"></path>
<path d="M315.569 271.757C293.894 284.018 272.32 293.808 252.663 308.601C266.261 336.736 283.681 364.216 298.986 391.37C287.935 403.519 279.591 414.298 267.735 426.933C248.274 392.723 227.603 356.013 208.141 321.802C205.651 317.425 203.118 312.929 202.304 307.96C201.003 300.019 204.352 291.882 209.462 285.666C214.839 279.126 249.763 249.888 265.592 239.436" fill="#010101"></path>
<path d="M315.569 271.757C293.894 284.018 272.32 293.808 252.663 308.601C266.261 336.736 283.681 364.216 298.986 391.37C287.935 403.519 279.591 414.298 267.735 426.933C248.274 392.723 227.603 356.013 208.141 321.802C205.651 317.425 203.118 312.929 202.304 307.96C201.003 300.019 204.352 291.882 209.462 285.666C214.839 279.126 249.763 249.888 265.592 239.436" stroke="#010101" stroke-width="1.5" stroke-linecap="round" stroke-linejoin="round"></path>
<path d="M293.682 389.956C298.83 395.256 304.135 400.405 309.585 405.393C309.822 405.61 309.878 405.958 309.723 406.24C308.136 409.126 306.809 412.154 305.764 415.278C305.608 415.745 305.048 415.906 304.663 415.599C303.096 414.352 301.407 413.259 299.626 412.343C299.985 415.066 300.593 417.756 301.635 420.428C301.954 421.245 301.993 422.145 301.694 422.97L290.336 454.284C289.798 455.768 288.155 456.532 286.673 455.987L284.369 455.139C283.788 454.925 283.177 454.691 282.786 454.21C282.485 453.841 282.35 453.367 282.228 452.907C280.698 447.149 280.056 441.194 278.767 435.378C277.478 429.562 275.456 423.742 271.598 419.203" fill="white"></path>
<path d="M293.682 389.956C298.83 395.256 304.135 400.405 309.585 405.393C309.822 405.61 309.878 405.958 309.723 406.24C308.136 409.126 306.809 412.154 305.764 415.278C305.608 415.745 305.048 415.906 304.663 415.599C303.096 414.352 301.407 413.259 299.626 412.343C299.985 415.066 300.593 417.756 301.635 420.428C301.954 421.245 301.993 422.145 301.694 422.97L290.336 454.284C289.798 455.768 288.155 456.532 286.673 455.987L284.369 455.139C283.788 454.925 283.177 454.691 282.786 454.21C282.485 453.841 282.35 453.367 282.228 452.907C280.698 447.149 280.056 441.194 278.767 435.378C277.478 429.562 275.456 423.742 271.598 419.203" stroke="#010101" stroke-width="1.5" stroke-linecap="round" stroke-linejoin="round"></path>
<path d="M256.962 445.435C254.094 452.141 251.421 458.93 248.947 465.791C248.781 466.252 248.325 466.534 247.837 466.484C244.83 466.177 241.798 466.118 238.782 466.309C238.054 466.355 237.475 465.693 237.663 464.989C238.138 463.209 238.451 461.387 238.597 459.55C235.969 461.079 233.496 463.57 231.255 465.929C231.059 466.135 230.792 466.253 230.508 466.261L190.238 467.148C188.661 467.224 187.323 466.002 187.255 464.424L187.149 461.971C187.122 461.352 187.103 460.699 187.396 460.152C187.621 459.732 188.005 459.425 188.383 459.135C193.106 455.504 204.432 452.616 209.301 449.183C214.17 445.751 218.761 441.642 221.462 436.332" fill="white"></path>
<path d="M256.962 445.435C254.094 452.141 251.421 458.93 248.947 465.791C248.781 466.252 248.325 466.534 247.837 466.484C244.83 466.177 241.798 466.118 238.782 466.309C238.054 466.355 237.475 465.693 237.663 464.989C238.138 463.209 238.451 461.387 238.597 459.55C235.969 461.079 233.496 463.57 231.255 465.929C231.059 466.135 230.792 466.253 230.508 466.261L190.238 467.148C188.661 467.224 187.323 466.002 187.255 464.424L187.149 461.971C187.122 461.352 187.103 460.699 187.396 460.152C187.621 459.732 188.005 459.425 188.383 459.135C193.106 455.504 204.432 452.616 209.301 449.183C214.17 445.751 218.761 441.642 221.462 436.332" stroke="#010101" stroke-width="1.5" stroke-linecap="round" stroke-linejoin="round"></path>
<path d="M441.123 285.369C443.99 285.901 446.84 286.529 449.644 287.328C450.161 287.475 450.687 287.634 451.124 287.947C451.561 288.26 451.901 288.76 451.881 289.297C451.847 290.239 450.789 290.808 449.85 290.891C448.911 290.974 447.934 290.776 447.042 291.079" fill="white"></path>
<path d="M441.123 285.369C443.99 285.901 446.84 286.529 449.644 287.328C450.161 287.475 450.687 287.634 451.124 287.947C451.561 288.26 451.901 288.76 451.881 289.297C451.847 290.239 450.789 290.808 449.85 290.891C448.911 290.974 447.934 290.776 447.042 291.079" stroke="#010101" stroke-width="1.5" stroke-linecap="round" stroke-linejoin="round"></path>
<path d="M315.601 271.765C280.904 338.704 250.603 385.749 213.374 441.958C228.244 446.717 240.976 451.825 255.388 457.055C339.65 335.68 325.112 358.951 340.546 336.719C353.385 318.224 367.307 297.474 377.019 277.161C380.296 270.307 383.59 263.278 384.422 255.726C385.254 248.175 383.191 239.877 377.328 235.046" fill="#010101"></path>
<path d="M315.601 271.765C280.904 338.704 250.603 385.749 213.374 441.958C228.244 446.717 240.976 451.825 255.388 457.055C339.65 335.68 325.112 358.951 340.546 336.719C353.385 318.224 367.307 297.474 377.019 277.161C380.296 270.307 383.59 263.278 384.422 255.726C385.254 248.175 383.191 239.877 377.328 235.046" stroke="#010101" stroke-width="1.5" stroke-linecap="round" stroke-linejoin="round"></path>
<path d="M342.119 102.232C341.18 142.734 343.827 182.842 347.207 223.214C347.933 231.888 349.043 241.223 354.925 247.64C361.842 255.186 374.636 255.863 384.848 256.559C385.561 235.807 384.196 221.704 383.729 204.027C385.09 210.109 400.168 254.053 407.028 280.196C420.343 278.764 430.681 275.466 442.418 272.008C429.847 224.105 420.27 190.468 406.838 148.588C402.425 134.828 395.726 120.972 384.045 112.464C372.687 104.192 356.515 103.078 342.119 102.232Z" fill="#7B5FF1" stroke="#010101" stroke-width="1.5" stroke-linecap="round" stroke-linejoin="round"></path>
<path d="M383.251 203.186C379.625 192.671 376 182.156 372.374 171.641Z" fill="white"></path>
<path d="M383.251 203.186C379.625 192.671 376 182.156 372.374 171.641" stroke="#010101" stroke-width="1.5" stroke-linecap="round" stroke-linejoin="round"></path>
<path d="M221.698 151.046C217.907 155.674 212.47 162.796 212.47 162.796C212.47 162.796 166.234 116.075 156.177 104.66C149.069 114.619 141.512 120.972 135.548 131.655C148.203 148.674 163.665 168.349 179.613 182.33C190.968 192.284 202.751 201.306 217.85 201.363C230.47 201.411 259.879 181.322 269.121 164.938C272.767 191.508 272.563 210.776 270.195 221.328C268.562 228.606 264.17 239.683 258.461 244.483C267.426 247.005 277.022 247.251 286.104 245.192C292.288 243.79 298.657 240.973 301.819 235.476C304.354 231.069 304.401 225.714 304.379 220.629C304.207 180.343 303.75 141.594 302.824 101.914C302.249 100.926 284.042 99.767 271.696 104.468C260.261 108.822 236.086 133.479 221.696 151.046H221.698Z" fill="#7B5FF1" stroke="#010101" stroke-width="1.5" stroke-linecap="round" stroke-linejoin="round"></path>
<path d="M321.572 104.432C318.545 101.391 315.161 98.706 311.512 96.45C310.558 95.86 309.539 95.285 308.419 95.217C306.258 95.087 304.194 98.372 302.867 100.082C302.5 100.555 302.129 101.067 302.064 101.663C301.989 102.342 302.324 102.993 302.658 103.588C304.71 107.246 307.432 109.15 310.201 112.299C310.909 113.105 311.776 113.953 312.849 113.936C313.655 113.923 314.36 113.414 314.978 112.896C317.552 110.74 319.668 108.039 321.573 104.431L321.572 104.432Z" fill="white" stroke="#010101" stroke-width="1.5" stroke-linecap="round" stroke-linejoin="round"></path>
<path d="M328.116 112.447C325.883 109.693 323.461 106.811 321.312 104.114C324.66 101.564 328.117 98.429 332.779 96.094C334.359 95.303 336.206 94.5 337.822 95.213C338.774 95.634 342.677 99.585 343.942 102.887C340.603 106.283 334.458 110.664 330.966 112.914C330.037 113.513 328.812 113.306 328.116 112.447Z" fill="white" stroke="#010101" stroke-width="1.5" stroke-linecap="round" stroke-linejoin="round"></path>
<path d="M373.367 287.382L353.436 320.686" stroke="white" stroke-width="1.5" stroke-linecap="round" stroke-linejoin="round"></path>
<path d="M273.236 346.051L245.552 391.37" stroke="white" stroke-width="1.5" stroke-linecap="round" stroke-linejoin="round"></path>
<path d="M484.433 249.764C482.988 248.575 481.543 247.387 480.099 246.198C480.277 246.299 480.455 246.399 484.433 249.764Z" stroke="#010101" stroke-width="1.5" stroke-linecap="round" stroke-linejoin="round"></path>
<path d="M329.768 374.627C326.533 376.015 323.579 378.301 321.964 381.429C320.349 384.557 320.269 388.579 322.265 391.479C324.013 394.018 327.041 395.386 330.051 396.051C334.454 397.025 339.79 396.373 342.301 392.627C344.35 389.571 343.83 385.418 342.324 382.061C341.124 379.386 339.305 376.923 336.826 375.358C334.347 373.793 331.59 373.846 329.769 374.627H329.768Z" fill="white" stroke="#010101" stroke-width="1.5" stroke-linecap="round" stroke-linejoin="round"></path>
<path d="M340.936 379.528L373.477 344.298" stroke="#010101" stroke-width="1.5" stroke-linecap="round" stroke-linejoin="round"></path>
<path d="M373.477 344.298C376.227 352.651 390.137 350.188 391.752 342.207C392.58 338.119 390.852 333.318 386.168 331.977C374.011 328.497 371.843 339.335 373.477 344.298Z" fill="#7B5FF1" stroke="#010101" stroke-width="1.5" stroke-linecap="round" stroke-linejoin="round"></path>
<path d="M391.753 342.207C391.753 342.207 424.815 367.889 431.12 373.082" stroke="#010101" stroke-width="1.5" stroke-linecap="round" stroke-linejoin="round"></path>
<path d="M431.434 373.823C430.573 375.371 430.2 377.158 430.696 378.859C431.916 383.043 436.544 386.027 440.804 385.107C445.064 384.187 447.651 378.769 446.235 374.647C444.819 370.525 436.13 365.378 431.434 373.823Z" fill="#010101" stroke="#010101" stroke-width="1.5" stroke-linecap="round" stroke-linejoin="round"></path>
<path d="M446.235 374.647C453.514 368.906 460.793 363.166 468.072 357.425" stroke="#010101" stroke-width="1.5" stroke-linecap="round" stroke-linejoin="round"></path>
<path d="M475.056 344.16C467.052 341.268 463.185 350.954 467.144 355.344C469.137 357.554 472.079 359.104 475.01 358.591C477.941 358.078 480.464 355.362 480.334 352.389C480.193 349.163 478.353 345.351 475.056 344.159V344.16Z" fill="white" stroke="#010101" stroke-width="1.5" stroke-linecap="round" stroke-linejoin="round"></path>
<path d="M410.788 440.132C408.198 440.163 405.59 439.909 403.109 439.164C399.271 438.012 395.765 435.631 393.513 432.317C391.261 429.003 390.342 424.748 391.3 420.857C392.349 416.596 394.314 412.605 397.803 409.943C400.11 408.183 403.084 407.086 406.16 406.592C405.754 403.633 405.348 400.675 404.943 397.717C400.102 398.443 395.404 400.145 391.779 402.91C386.44 406.983 383.434 413.091 381.828 419.611C380.362 425.565 381.769 432.075 385.215 437.147C388.661 442.219 394.027 445.862 399.899 447.625C403.695 448.765 407.687 449.153 411.649 449.106C414.459 449.072 417.293 448.806 420.006 448.108C419.076 445.138 418.146 442.169 417.216 439.199C415.156 439.869 412.961 440.106 410.788 440.132Z" fill="#7B5FF1" stroke="#010101" stroke-width="1.5" stroke-linecap="round" stroke-linejoin="round"></path>
<path d="M418.403 438.762C418.014 438.927 417.616 439.068 417.215 439.199C418.145 442.169 419.075 445.138 420.005 448.108C421.128 447.819 422.232 447.465 423.302 447.01C430.992 443.743 435.839 435.88 436.868 427.539C433.611 427.489 430.356 427.314 427.113 427.003C426.203 432.086 423.13 436.754 418.403 438.762Z" fill="#010101" stroke="#010101" stroke-width="1.5" stroke-linecap="round" stroke-linejoin="round"></path>
<path d="M436.147 417.337C432.954 406.003 422.824 398.868 416.074 397.755C412.57 397.178 408.712 397.151 404.941 397.717C405.347 400.676 405.753 403.634 406.158 406.592C408.7 406.183 411.312 406.185 413.679 406.575C418.09 407.302 424.709 411.965 426.796 419.371C427.49 421.835 427.565 424.469 427.112 427.002C430.355 427.313 433.61 427.488 436.867 427.538C437.288 424.123 437.074 420.629 436.146 417.336L436.147 417.337Z" fill="#FF8B37" stroke="#010101" stroke-width="1.5" stroke-linecap="round" stroke-linejoin="round"></path>
<path d="M453.948 403.662C451.159 403.624 448.368 403.713 445.587 403.93C445.54 406.367 445.494 408.804 445.447 411.24C448.232 411.342 453.8 411.005 453.8 411.005C453.8 411.005 454.558 405.458 453.949 403.662H453.948Z" fill="#FF8B37" stroke="#010101" stroke-width="1.5" stroke-linecap="round" stroke-linejoin="round"></path>
<path d="M453.365 419.414C450.576 419.376 447.785 419.465 445.004 419.682C444.957 422.119 444.911 424.556 444.864 426.992C447.649 427.094 453.217 426.757 453.217 426.757C453.217 426.757 453.975 421.21 453.366 419.414H453.365Z" fill="#7B5FF1" stroke="#010101" stroke-width="1.5" stroke-linecap="round" stroke-linejoin="round"></path>
<path d="M453.365 435.165C450.576 435.127 447.785 435.216 445.004 435.433C444.957 437.87 444.911 440.307 444.864 442.743C447.649 442.845 453.217 442.508 453.217 442.508C453.217 442.508 453.975 436.961 453.366 435.165H453.365Z" fill="#010101" stroke="#010101" stroke-width="1.5" stroke-linecap="round" stroke-linejoin="round"></path>
<path d="M460.614 406.839C468.547 406.524 476.493 406.568 484.422 406.972" stroke="#010101" stroke-width="1.5" stroke-linecap="round" stroke-linejoin="round"></path>
<path d="M459.676 422.7C467.928 422.801 476.181 422.903 484.433 423.004" stroke="#010101" stroke-width="1.5" stroke-linecap="round" stroke-linejoin="round"></path>
<path d="M459.093 439.036C467.4 439.041 475.706 439.045 484.013 439.05" stroke="#010101" stroke-width="1.5" stroke-linecap="round" stroke-linejoin="round"></path>
<path d="M177.711 234.483C176.909 234.375 176.061 234.762 175.619 235.439C175.177 236.116 175.162 237.048 175.583 237.739C176.333 238.969 178.391 239.027 179.242 237.864C180.093 236.702 179.476 234.721 177.71 234.482L177.711 234.483Z" fill="#010101"></path>
<path d="M57.001 121.744C56.199 121.636 55.351 122.023 54.909 122.7C54.467 123.377 54.452 124.309 54.873 125C55.623 126.23 57.681 126.288 58.532 125.125C59.383 123.963 58.766 121.982 57 121.743L57.001 121.744Z" fill="#010101"></path>
<path d="M403.859 75.648C405.763 73.89 407.668 72.132 409.572 70.374" stroke="#010101" stroke-width="1.5" stroke-linecap="round" stroke-linejoin="round"></path>
<path d="M496.411 117.816C494.918 117.614 493.339 118.336 492.516 119.597C491.692 120.858 491.665 122.594 492.45 123.88C493.847 126.17 497.679 126.278 499.264 124.114C500.849 121.95 499.7 118.261 496.412 117.817L496.411 117.816Z" fill="#010101"></path>
</g>
<defs>
<clipPath id="clip0_35_1837">
<rect width="520.957" height="468.733" fill="white"></rect>
</clipPath>
</defs>
</svg>