<svg version="1.1" id="Layer_1" xmlns="http://www.w3.org/2000/svg" xmlns:xlink="http://www.w3.org/1999/xlink" x="0px" y="0px" viewBox="0 0 500 500" style="width: 140px;" xml:space="preserve" data-imageid="personal-finance-45" imageName="Personal Finance" class="illustrations_image">
<style type="text/css">
	.st0_personal-finance-45{fill:#FFFFFF;}
	.st1_personal-finance-45{fill:#231F20;}
	.st2_personal-finance-45{fill:#D1D3D4;}
	.st3_personal-finance-45{fill:#68E1FD;}
</style>
<g id="Data_personal-finance-45">
	<polygon class="st0_personal-finance-45" points="356.3,230.8 356.3,249 342.9,249 356.3,256.8 356.3,278.5 423.2,278.5 423.2,230.8 &#9;"/>
	<path class="st1_personal-finance-45" d="M423.2,279.2h-67c-0.4,0-0.7-0.3-0.7-0.7v0v-21.3l-13.1-7.6c-0.3-0.2-0.5-0.6-0.3-1c0.1-0.2,0.4-0.4,0.6-0.4&#10;&#9;&#9;h12.7v-17.5c0-0.4,0.3-0.7,0.7-0.7l0,0h67c0.4,0,0.7,0.3,0.7,0.7c0,0,0,0,0,0v47.8C423.9,278.9,423.6,279.2,423.2,279.2&#10;&#9;&#9;L423.2,279.2L423.2,279.2z M357,277.9h65.6v-46.4H357V249c0,0.4-0.3,0.7-0.7,0.7l0,0h-10.8l11.2,6.5c0.2,0.1,0.3,0.4,0.4,0.6&#10;&#9;&#9;L357,277.9z"/>
	<path class="st0_personal-finance-45" d="M373.9,202.3l0.6-1.6c0.1-0.3,0.2-0.6,0.3-0.8c0.1-0.4,0.5-0.6,0.9-0.5c0.4,0.1,0.9,0.1,1.3,0.2&#10;&#9;&#9;c0.2,0.1,0.5,0.1,0.7,0.1c0.2,0,0.4,0,0.5-0.2c0.5-0.5,1-1,1.5-1.5c0.2-0.2,0.2-0.5,0.1-0.7c-0.1-0.5-0.2-1.1-0.4-1.6&#10;&#9;&#9;c0-0.2-0.1-0.4-0.1-0.6c0-0.2,0.1-0.3,0.2-0.4c0.8-0.5,1.7-0.9,2.6-1.2c0.3-0.1,0.6,0,0.8,0.3c0.3,0.5,0.7,0.9,1,1.4&#10;&#9;&#9;c0.2,0.4,0.6,0.6,1,0.5c0.6,0,1.2-0.1,1.8-0.1c0.2,0,0.4-0.1,0.5-0.3c0.2-0.3,0.4-0.6,0.6-0.9s0.4-0.5,0.5-0.8&#10;&#9;&#9;c0.2-0.3,0.5-0.4,0.8-0.3c0.8,0.3,1.6,0.6,2.4,0.9c0.3,0.1,0.5,0.4,0.4,0.8c0,0.4-0.1,0.9-0.2,1.3c0,0.2-0.1,0.4-0.1,0.6&#10;&#9;&#9;c0,0.3,0.1,0.6,0.3,0.7c0.4,0.4,0.9,0.8,1.3,1.2c0.2,0.3,0.6,0.4,1,0.3c0.6-0.1,1.1-0.3,1.7-0.4c0.4-0.2,0.8,0,1,0.4c0,0,0,0,0,0&#10;&#9;&#9;c0.3,0.7,0.6,1.4,1,2.1c0.2,0.4,0.1,0.9-0.3,1.1c0,0,0,0,0,0c-0.3,0.2-0.6,0.4-0.9,0.7s-0.4,0.3-0.6,0.5c-0.2,0.1-0.3,0.4-0.3,0.6&#10;&#9;&#9;c0,0.6,0,1.2,0,1.8c0,0.3,0.2,0.6,0.5,0.8l1,0.6c0.2,0.1,0.4,0.2,0.6,0.4c0.3,0.2,0.4,0.6,0.3,0.9c-0.3,0.7-0.5,1.5-0.8,2.2&#10;&#9;&#9;c0,0.1-0.1,0.2-0.2,0.3c-0.1,0.2-0.4,0.4-0.7,0.3l-1.6-0.3c0,0-0.1,0-0.1,0c-0.4-0.1-0.9,0-1.2,0.4c-0.3,0.4-0.6,0.7-1,1&#10;&#9;&#9;c-0.3,0.3-0.4,0.7-0.3,1.1c0.1,0.5,0.2,1,0.4,1.5c0.2,0.4,0,0.8-0.4,1c0,0,0,0-0.1,0c-0.7,0.3-1.4,0.7-2.2,1&#10;&#9;&#9;c-0.3,0.2-0.8,0.1-1-0.2c0,0,0,0,0,0c-0.3-0.4-0.5-0.7-0.8-1.1c-0.6-0.8-0.7-0.9-1.7-0.8l-1.1,0.1c-0.4,0-0.7,0.2-0.9,0.5&#10;&#9;&#9;c-0.2,0.4-0.5,0.8-0.7,1.1c-0.1,0.2-0.3,0.4-0.4,0.5c-0.1,0.2-0.4,0.2-0.6,0.2l-2.3-0.9c-0.1,0-0.2-0.1-0.3-0.2&#10;&#9;&#9;c-0.2-0.1-0.4-0.4-0.3-0.7c0.1-0.5,0.2-1,0.2-1.6c0-0.2,0-0.3,0-0.5c0-0.3-0.1-0.5-0.3-0.7c-0.4-0.4-0.8-0.8-1.2-1.2&#10;&#9;&#9;c-0.2-0.2-0.6-0.3-0.9-0.2c-0.5,0.1-1,0.2-1.5,0.4h-0.1c-0.7,0.1-0.9,0-1.2-0.6s-0.6-1.4-0.9-2.1c-0.2-0.3-0.1-0.7,0.2-1&#10;&#9;&#9;c0,0,0.1,0,0.1,0c0.4-0.3,0.8-0.6,1.2-0.9c0.4-0.2,0.7-0.7,0.6-1.2c0-0.5,0-1.1-0.1-1.6c0-0.2-0.1-0.4-0.3-0.6&#10;&#9;&#9;c-0.5-0.3-0.9-0.6-1.4-0.9c-0.3-0.2-0.6-0.4-0.7-0.8L373.9,202.3L373.9,202.3z M391.2,205.3c0-2.9-2.3-5.2-5.2-5.2c0,0,0,0-0.1,0&#10;&#9;&#9;c-2.8,0.1-5.1,2.4-5.1,5.2c0,2.8,2.3,5.1,5.1,5.2c2.8,0,5.1-2.2,5.2-5.1C391.2,205.4,391.2,205.3,391.2,205.3L391.2,205.3z"/>
	<path class="st2_personal-finance-45" d="M383.1,218.2c-0.1,0-0.3,0-0.4-0.1l-2.3-0.9c-0.1-0.1-0.3-0.1-0.4-0.2c-0.5-0.3-0.8-0.8-0.7-1.4l0.2-1.6&#10;&#9;&#9;c0-0.1,0-0.3,0-0.4s0-0.1,0-0.1l-1.2-1.1c-0.1-0.1-0.2-0.1-0.3-0.1l-1.1,0.3l-0.4,0.1c-0.8,0.3-1.7-0.1-2-0.9c0,0,0,0,0-0.1&#10;&#9;&#9;c-0.3-0.7-0.6-1.4-0.9-2.1c-0.3-0.6-0.1-1.4,0.5-1.8c0.4-0.3,0.9-0.6,1.3-0.9c0.2-0.1,0.3-0.3,0.3-0.6c0-0.4,0-0.7,0-1.1v-0.6&#10;&#9;&#9;l-1.4-0.9c-0.5-0.2-0.8-0.6-1-1.1c0-0.1,0-0.1,0-0.2v-0.2c0-0.1,0-0.2,0-0.2l0.1-0.4l0.4-1.2c0.1-0.3,0.2-0.6,0.3-0.9&#10;&#9;&#9;c0.2-0.7,0.9-1.1,1.6-1c0.3,0,0.6,0.1,0.9,0.1l0.6,0.1c0.1,0,0.3,0,0.4,0c0.5-0.4,1-0.9,1.5-1.4l-0.2-0.8c-0.1-0.3-0.1-0.6-0.2-0.9&#10;&#9;&#9;c-0.1-0.3-0.1-0.6-0.1-0.8c0-0.4,0.2-0.7,0.5-0.9c0.9-0.6,1.8-1,2.8-1.3c0.6-0.2,1.2,0,1.5,0.5l0.4,0.5l0.7,0.9&#10;&#9;&#9;c0.1,0.2,0.2,0.2,0.4,0.2l1.2-0.1h0.6c0.1-0.2,0.2-0.4,0.4-0.6l0.4-0.5c0.1-0.2,0.3-0.4,0.4-0.6c0.4-0.5,1-0.7,1.6-0.5&#10;&#9;&#9;c0.8,0.3,1.6,0.6,2.4,0.9c0.6,0.2,1,0.9,0.9,1.5c0,0.3-0.1,0.6-0.1,1l-0.1,0.4c0,0.2-0.1,0.4-0.1,0.6s0,0.1,0,0.2l0.3,0.3&#10;&#9;&#9;c0.3,0.3,0.7,0.6,1,1c0.1,0.1,0.2,0.1,0.3,0.1l1.7-0.4c0.7-0.2,1.5,0.2,1.8,0.8c0.3,0.7,0.6,1.4,1,2.1c0.4,0.7,0.2,1.6-0.5,2&#10;&#9;&#9;c-0.2,0.1-0.4,0.3-0.6,0.4l-0.4,0.3l-0.6,0.5v0.5c0,0.5,0,0.9,0,1.4c0,0.1,0.1,0.2,0.1,0.2l0.4,0.2l0.6,0.4&#10;&#9;&#9;c0.2,0.1,0.4,0.3,0.7,0.4c0.5,0.4,0.7,1.1,0.5,1.7c-0.3,0.7-0.5,1.5-0.8,2.2c-0.1,0.2-0.1,0.3-0.2,0.4c-0.3,0.5-0.8,0.7-1.4,0.6&#10;&#9;&#9;l-1.6-0.3h-0.2c-0.2-0.1-0.4,0-0.5,0.2c-0.2,0.3-0.5,0.5-0.7,0.7l-0.3,0.3c-0.1,0.1-0.2,0.3-0.1,0.5c0.1,0.5,0.3,1,0.4,1.6&#10;&#9;&#9;c0.2,0.7-0.2,1.5-0.9,1.8c-0.7,0.4-1.5,0.7-2.2,1c-0.6,0.3-1.4,0.1-1.8-0.5c-0.2-0.3-0.5-0.6-0.7-0.9l-0.1-0.2&#10;&#9;&#9;c-0.4-0.6-0.4-0.6-1.1-0.5l-1.1,0.1c-0.1,0-0.3,0.1-0.3,0.2l-0.2,0.4c-0.2,0.3-0.3,0.5-0.5,0.8c-0.2,0.2-0.3,0.4-0.5,0.6&#10;&#9;&#9;C383.8,218.1,383.5,218.3,383.1,218.2L383.1,218.2z M378.2,210.9c0.4,0,0.8,0.2,1.1,0.4l1.2,1.1c0.3,0.3,0.5,0.8,0.5,1.3&#10;&#9;&#9;c0,0.2,0,0.4,0,0.6l-0.2,1.6l0.2,0.1l2.2,0.8c0.1-0.1,0.2-0.2,0.3-0.4c0.2-0.2,0.3-0.5,0.5-0.7l0.2-0.4c0.3-0.5,0.9-0.8,1.5-0.9&#10;&#9;&#9;l1.1-0.1c0.9-0.2,1.9,0.2,2.3,1.1l0.1,0.2c0.2,0.3,0.4,0.6,0.6,0.9l0,0h0.1l0,0c0.7-0.3,1.4-0.6,2.1-1l0.1-0.1c0-0.1,0-0.1,0-0.2&#10;&#9;&#9;c-0.1-0.5-0.2-1-0.4-1.5c-0.2-0.6,0-1.3,0.5-1.8l0.3-0.3c0.2-0.2,0.4-0.4,0.6-0.7c0.4-0.6,1.2-0.8,1.9-0.6l1.6,0.3&#10;&#9;&#9;c0-0.1,0.1-0.1,0.1-0.2c0.3-0.7,0.5-1.4,0.8-2.2c-0.2-0.1-0.4-0.2-0.7-0.3l-1-0.6c-0.5-0.3-0.8-0.8-0.8-1.4c0-0.5,0-0.9,0-1.4v-0.4&#10;&#9;&#9;c0-0.4,0.2-0.9,0.5-1.1c0.2-0.2,0.4-0.4,0.7-0.5l0.4-0.3l0.5-0.4c0.1,0,0.1-0.1,0.2-0.1c0-0.1,0-0.1-0.1-0.2&#10;&#9;&#9;c-0.3-0.7-0.6-1.4-0.9-2.1l-0.2-0.1l-1.7,0.4c-0.6,0.1-1.2,0-1.6-0.5c-0.3-0.3-0.6-0.6-1-0.9l-0.3-0.3c-0.4-0.3-0.5-0.8-0.5-1.3&#10;&#9;&#9;c0-0.2,0-0.5,0.1-0.7l0.1-0.4c0-0.3,0.1-0.6,0.1-0.8c-0.8-0.4-1.6-0.7-2.4-0.9l-0.4,0.6l-0.3,0.5l-0.4,0.6&#10;&#9;&#9;c-0.2,0.4-0.6,0.6-1.1,0.6h-0.6l-1.1,0.1c-0.7,0.1-1.3-0.3-1.7-0.8c-0.2-0.3-0.4-0.6-0.6-0.9l-0.4-0.5c-0.8,0.2-1.6,0.6-2.3,1&#10;&#9;&#9;c0,0.1,0,0.3,0,0.4c0.1,0.3,0.1,0.6,0.2,0.9l0.2,0.7c0.1,0.5,0,1-0.3,1.3c-0.5,0.5-1,1-1.5,1.5c-0.3,0.2-0.6,0.4-1,0.4&#10;&#9;&#9;c-0.2,0-0.5,0-0.7-0.1l-0.6-0.1c-0.3,0-0.5-0.1-0.8-0.1c0,0-0.1,0-0.1,0.1s-0.2,0.5-0.3,0.8s-0.3,0.8-0.4,1.2l-0.1,0.3&#10;&#9;&#9;c0.1,0.1,0.2,0.2,0.4,0.3l1.4,0.9c0.4,0.2,0.6,0.7,0.6,1.1v0.6c0,0.3,0,0.7,0,1c0.1,0.7-0.3,1.5-0.9,1.8c-0.4,0.3-0.8,0.6-1.2,0.9&#10;&#9;&#9;c0,0-0.1,0.1-0.1,0.1c0.3,0.7,0.6,1.4,1,2.1c0,0.1,0.1,0.2,0.1,0.2h0.3l0.5-0.1l1.1-0.3c0.1,0,0.3-0.1,0.5-0.1L378.2,210.9z&#10;&#9;&#9; M386.1,211.2L386.1,211.2c-3.2,0-5.9-2.6-5.9-5.8c0-3.2,2.6-5.9,5.8-5.9l0,0c3.2,0,5.9,2.6,5.9,5.8c0,0,0,0,0,0.1&#10;&#9;&#9;c0,1.5-0.5,2.9-1.6,4C389.3,210.5,387.7,211.2,386.1,211.2L386.1,211.2z M386,200.9c-1.2,0-2.3,0.5-3.1,1.4c-0.8,0.8-1.3,2-1.3,3.1&#10;&#9;&#9;c0,2.5,2,4.4,4.4,4.5l0,0c1.2,0,2.4-0.5,3.3-1.4c0.8-0.8,1.2-1.9,1.2-3l0,0C390.5,202.9,388.6,200.9,386,200.9&#10;&#9;&#9;C386.1,200.9,386,200.9,386,200.9L386,200.9L386,200.9z"/>
	<polygon class="st0_personal-finance-45" points="197.3,151.1 185.1,145.7 185.1,118.8 121.8,118.8 121.8,159.8 185.1,159.8 185.1,151.1 &#9;"/>
	<path class="st1_personal-finance-45" d="M185.1,160.5h-63.3c-0.4,0-0.7-0.3-0.7-0.7v-40.9c0-0.4,0.3-0.7,0.7-0.7h63.3c0.4,0,0.7,0.3,0.7,0.7v26.4&#10;&#9;&#9;l11.7,5.3c0.4,0.2,0.5,0.6,0.4,0.9c-0.1,0.3-0.4,0.4-0.6,0.4h-11.4v8C185.8,160.2,185.5,160.5,185.1,160.5L185.1,160.5z&#10;&#9;&#9; M122.5,159.1h61.9v-8c0-0.4,0.3-0.7,0.7-0.7h8.9l-9.2-4.1c-0.3-0.1-0.4-0.4-0.4-0.6v-26.1h-61.9L122.5,159.1z"/>
	<path class="st3_personal-finance-45 targetColor" d="M154.5,129.9c3.2,3.1,6.3,6.3,9.4,9.4c0.1,0.1,0.2,0.2,0.4,0.2h14.5c-0.3,7.7-6.7,13.7-14.4,13.5&#10;&#9;&#9;c-7.7-0.3-13.7-6.7-13.5-14.4c0.1-3.2,1.3-6.3,3.5-8.8L154.5,129.9L154.5,129.9z" style="fill: rgb(104, 225, 253);"/>
	<path class="st2_personal-finance-45" d="M165.4,125.1v13.5h0.1h13c0.3,0,0.3,0,0.3-0.3c-0.4-6.9-5.8-12.5-12.8-13.1L165.4,125.1L165.4,125.1z"/>
	<path class="st2_personal-finance-45" d="M164.4,138.3v-13.3c-1.6,0.1-3.1,0.4-4.6,1c-1.7,0.7-3.3,1.7-4.7,3L164.4,138.3L164.4,138.3z"/>
	<path class="st2_personal-finance-45" d="M144.9,132.2h-16.2c-0.4,0-0.7-0.3-0.7-0.7c0-0.4,0.3-0.7,0.7-0.7h16.2c0.4,0,0.7,0.3,0.7,0.7&#10;&#9;&#9;C145.6,131.9,145.3,132.2,144.9,132.2z"/>
	<path class="st2_personal-finance-45" d="M144.9,139h-16.2c-0.4,0-0.7-0.3-0.7-0.7c0-0.4,0.3-0.7,0.7-0.7c0,0,0,0,0,0h16.2c0.4,0,0.7,0.3,0.7,0.7&#10;&#9;&#9;C145.6,138.7,145.3,139,144.9,139z"/>
	<path class="st2_personal-finance-45" d="M139.3,145.8h-10.7c-0.4,0-0.7-0.3-0.7-0.7c0-0.4,0.3-0.7,0.7-0.7c0,0,0,0,0,0h10.7c0.4,0,0.7,0.3,0.7,0.7&#10;&#9;&#9;C140,145.5,139.7,145.8,139.3,145.8C139.3,145.8,139.3,145.8,139.3,145.8z"/>
	<rect x="370.3" y="250.8" class="st3_personal-finance-45 targetColor" width="5.2" height="21.2" style="fill: rgb(104, 225, 253);"/>
	<rect x="379.9" y="259.6" class="st3_personal-finance-45 targetColor" width="5.2" height="12.4" style="fill: rgb(104, 225, 253);"/>
	<rect x="389.4" y="253.9" class="st3_personal-finance-45 targetColor" width="5.2" height="18.1" style="fill: rgb(104, 225, 253);"/>
	<rect x="399" y="264.2" class="st3_personal-finance-45 targetColor" width="5.2" height="7.8" style="fill: rgb(104, 225, 253);"/>
	<rect x="408.6" y="253.9" class="st3_personal-finance-45 targetColor" width="5.2" height="18.1" style="fill: rgb(104, 225, 253);"/>
	<path class="st2_personal-finance-45" d="M413.7,238h-8.8c-0.4,0-0.7-0.3-0.7-0.7c0-0.4,0.3-0.7,0.7-0.7h8.8c0.4,0,0.7,0.3,0.7,0.7S414,238,413.7,238&#10;&#9;&#9;C413.7,238,413.7,238,413.7,238z"/>
	<path class="st2_personal-finance-45" d="M410.6,241.3h-5.7c-0.4,0-0.7-0.3-0.7-0.7s0.3-0.7,0.7-0.7c0,0,0,0,0,0h5.7c0.4,0,0.7,0.3,0.7,0.7&#10;&#9;&#9;S411,241.3,410.6,241.3C410.6,241.3,410.6,241.3,410.6,241.3z"/>
	<path class="st2_personal-finance-45" d="M402.3,254.6c-3,0-5.4-3.2-7.4-5.7c-1-1.3-2.4-3-3-3l0,0c-1.2,0.3-2.3,0.8-3.3,1.5c-1.8,1.1-3.9,2.3-6,2.2&#10;&#9;&#9;c-3.7-0.2-10.1-7.7-10.8-8.5c-0.3-0.2-0.3-0.7-0.1-0.9c0.2-0.3,0.7-0.3,0.9-0.1c0.1,0.1,0.1,0.1,0.2,0.2c1.9,2.2,7.2,7.9,9.9,8.1&#10;&#9;&#9;c1.7,0.1,3.5-1,5.2-2c1.2-0.8,2.5-1.4,3.9-1.6c1.2-0.1,2.5,1.5,4.1,3.5c1.9,2.4,4.2,5.3,6.5,5.2c2-0.1,3-1.9,4.1-3.9&#10;&#9;&#9;s2.3-4.1,4.7-4.6c0.4-0.1,0.7,0.2,0.8,0.5c0.1,0.4-0.2,0.7-0.5,0.8c-1.8,0.3-2.7,2.1-3.7,3.9c-1.1,2.1-2.4,4.4-5.2,4.6L402.3,254.6&#10;&#9;&#9;L402.3,254.6z"/>
	<path class="st2_personal-finance-45" d="M418.2,272.7h-52.1c-0.4,0-0.7-0.3-0.7-0.7c0-0.4,0.3-0.7,0.7-0.7h52.1c0.4,0,0.7,0.3,0.7,0.7&#10;&#9;&#9;C418.9,272.4,418.6,272.7,418.2,272.7z"/>
	<path class="st2_personal-finance-45" d="M372.4,242.1c-0.9,0-1.5-0.7-1.5-1.5c0-0.9,0.7-1.5,1.5-1.5c0.9,0,1.5,0.7,1.5,1.5S373.3,242.1,372.4,242.1&#10;&#9;&#9;L372.4,242.1z M372.4,240.3c-0.1,0-0.2,0.1-0.2,0.2c0,0,0,0,0,0c0,0.2,0.4,0.2,0.4,0C372.6,240.4,372.5,240.3,372.4,240.3&#10;&#9;&#9;L372.4,240.3L372.4,240.3z"/>
	<path class="st2_personal-finance-45" d="M411.3,247c-0.9,0-1.5-0.7-1.5-1.5c0-0.9,0.7-1.5,1.5-1.5c0.9,0,1.5,0.7,1.5,1.5S412.1,247,411.3,247&#10;&#9;&#9;L411.3,247z M411.3,245.3c-0.1,0-0.2,0.1-0.2,0.2c0,0,0,0,0,0c0,0.2,0.4,0.2,0.4,0C411.5,245.4,411.4,245.3,411.3,245.3&#10;&#9;&#9;L411.3,245.3L411.3,245.3z"/>
	<path class="st3_personal-finance-45 targetColor" d="M393.3,183.3v-4c-1.5-0.4-2.9-0.7-4.2-1.2c-2.6-0.8-4.9-2.5-6.5-4.8c-1.3-2-1.9-4.3-1.9-6.7h7.8&#10;&#9;&#9;c0.4,2.9,1.8,4.9,4.7,5.7v-10.5c-1.5-0.4-3.1-0.9-4.6-1.4c-1.7-0.5-3.2-1.4-4.5-2.6c-1.3-1.3-2.2-3-2.5-4.9&#10;&#9;&#9;c-0.5-2.3-0.3-4.6,0.5-6.8c1.1-3.1,3.6-5.6,6.8-6.7c1.3-0.4,2.6-0.7,3.9-1c0.1,0,0.3-0.1,0.5-0.1v-5.3h7.2v0.5c0,1.5,0,3,0,4.5&#10;&#9;&#9;c0,0.4,0.1,0.5,0.5,0.6c2.5,0.5,4.8,1.6,6.8,3.2c2.1,1.7,3.4,4.1,3.8,6.7c0.1,0.7,0.2,1.4,0.3,2.2H404c0-2.2-1.4-4.2-3.4-5v9.8&#10;&#9;&#9;c0.3,0.1,0.5,0.1,0.9,0.2c2.1,0.4,4.2,1.1,6.2,2c3,1.3,5.1,4.2,5.4,7.5c0.8,5.6-2.5,11.1-7.9,12.9c-1.5,0.5-3,0.8-4.5,1.3v3.8&#10;&#9;&#9;L393.3,183.3L393.3,183.3z M400.6,163.3v9.1c1.2-0.2,2.3-0.7,3.2-1.4c1.7-1.4,2.3-4.8-0.2-6.3C402.6,164.2,401.6,163.7,400.6,163.3&#10;&#9;&#9;L400.6,163.3z M393.3,154v-8.8c-1,0.4-1.9,0.9-2.8,1.4c-2,1.3-2.3,5.1,0.2,6.4C391.5,153.4,392.4,153.7,393.3,154L393.3,154z" style="fill: rgb(104, 225, 253);"/>
	<path class="st1_personal-finance-45" d="M400.5,184h-7.2c-0.4,0-0.7-0.3-0.7-0.7c0,0,0,0,0,0v-3.4l-0.8-0.2c-1-0.2-2-0.5-2.9-0.8&#10;&#9;&#9;c-2.8-0.9-5.2-2.7-6.8-5.1c-1.4-2.1-2.1-4.6-2-7.1c0-0.2,0.1-0.4,0.2-0.5c0.1-0.1,0.3-0.2,0.5-0.2h7.8c0.4,0,0.6,0.3,0.7,0.6&#10;&#9;&#9;c0.3,2.5,1.4,4.1,3.4,4.9v-9l-0.9-0.2c-1.1-0.3-2.2-0.6-3.3-1c-1.8-0.5-3.4-1.5-4.8-2.7c-1.4-1.4-2.4-3.3-2.7-5.2&#10;&#9;&#9;c-0.5-2.4-0.3-4.8,0.5-7.1c1.2-3.3,3.9-6,7.2-7.1c0.9-0.3,1.8-0.6,2.8-0.8l1.1-0.3v-4.7c0-0.4,0.3-0.7,0.7-0.7l0,0h7.2&#10;&#9;&#9;c0.4,0,0.7,0.3,0.7,0.7c0,0,0,0,0,0v4.9c2.6,0.5,5,1.6,7,3.3c2.2,1.8,3.6,4.3,4.1,7.1c0.1,0.5,0.1,1,0.2,1.5l0.1,0.7&#10;&#9;&#9;c0,0.2,0,0.4-0.2,0.6c-0.1,0.2-0.3,0.2-0.5,0.2H404c-0.4,0-0.7-0.3-0.7-0.7c0-1.5-0.8-2.9-2-3.8v8.1l0.3,0.1c2.2,0.4,4.3,1.1,6.3,2&#10;&#9;&#9;c3.2,1.4,5.4,4.5,5.8,8c0.9,6-2.6,11.7-8.4,13.6c-1,0.4-2,0.6-3.1,0.9l-0.9,0.2v3.3C401.2,183.6,400.9,183.9,400.5,184L400.5,184&#10;&#9;&#9;L400.5,184z M394,182.6h5.9v-3.1c0-0.3,0.2-0.6,0.5-0.7l1.5-0.4c1.1-0.3,2-0.5,3-0.9c2.2-0.8,4.1-2.2,5.5-4.1&#10;&#9;&#9;c1.7-2.3,2.3-5.2,1.9-8c-0.2-3.1-2.2-5.7-5-6.9c-1.9-0.9-3.9-1.5-6-1.9l-0.6-0.1l-0.2-0.1c-0.3-0.1-0.5-0.4-0.5-0.7v-9.8&#10;&#9;&#9;c0-0.4,0.3-0.7,0.7-0.7c0.1,0,0.2,0,0.3,0.1c2,0.9,3.5,2.7,3.8,4.9h6.5c0-0.5-0.1-0.9-0.2-1.4c-0.4-2.5-1.7-4.7-3.6-6.3&#10;&#9;&#9;c-1.9-1.5-4.1-2.6-6.5-3c-0.6-0.1-1.1-0.6-1-1.3c0-1.1,0-2.2,0-3.2v-1.1H394v4.6c0,0.3-0.2,0.6-0.6,0.7h-0.2H393l-1.2,0.3&#10;&#9;&#9;c-0.9,0.2-1.7,0.4-2.6,0.7c-3,1.1-5.3,3.4-6.4,6.3c-0.7,2-0.9,4.3-0.5,6.4c0.3,1.7,1.1,3.3,2.3,4.5c1.2,1.1,2.6,2,4.2,2.4&#10;&#9;&#9;c1.1,0.3,2.1,0.6,3.2,1l1.4,0.4c0.3,0.1,0.5,0.4,0.5,0.7v10.6c0,0.2-0.1,0.4-0.3,0.6c-0.2,0.1-0.4,0.2-0.6,0.1&#10;&#9;&#9;c-2.8-0.6-4.8-2.9-5.2-5.7h-6.4c0,2,0.6,3.9,1.7,5.6c1.5,2.2,3.6,3.8,6.1,4.6c0.9,0.3,1.8,0.5,2.8,0.8l1.4,0.4&#10;&#9;&#9;c0.3,0.1,0.5,0.4,0.5,0.7L394,182.6L394,182.6z M400.6,173.2c-0.2,0-0.3-0.1-0.5-0.2c-0.2-0.1-0.2-0.3-0.2-0.5v-9.1&#10;&#9;&#9;c0-0.4,0.3-0.7,0.7-0.7c0.1,0,0.2,0,0.3,0.1l1,0.4c0.7,0.3,1.4,0.6,2.1,1c1.2,0.7,1.9,1.9,2,3.3c0.1,1.6-0.5,3.1-1.7,4.2&#10;&#9;&#9;c-1,0.8-2.2,1.4-3.5,1.6L400.6,173.2L400.6,173.2z M401.3,164.4v7.2c0.8-0.2,1.5-0.6,2.1-1.1c0.8-0.8,1.3-1.9,1.2-3&#10;&#9;&#9;c0-0.9-0.5-1.7-1.3-2.2C402.6,165,401.9,164.7,401.3,164.4L401.3,164.4L401.3,164.4z M393.3,154.7c-0.1,0-0.2,0-0.3,0l-0.8-0.3&#10;&#9;&#9;c-0.6-0.2-1.2-0.5-1.8-0.8c-1.3-0.7-2.2-2-2.2-3.5c-0.1-1.6,0.6-3.2,1.9-4.1c0.6-0.4,1.3-0.7,1.9-1l0.9-0.4c0.3-0.2,0.8,0,0.9,0.3&#10;&#9;&#9;c0,0.1,0.1,0.2,0.1,0.3v8.8c0,0.2-0.1,0.4-0.3,0.6C393.5,154.7,393.4,154.8,393.3,154.7L393.3,154.7z M392.6,146.3&#10;&#9;&#9;c-0.6,0.3-1.1,0.5-1.7,0.9c-0.9,0.7-1.4,1.8-1.3,2.9c0,1,0.6,1.9,1.5,2.3c0.5,0.2,1,0.4,1.5,0.6L392.6,146.3L392.6,146.3z"/>
	<path class="st2_personal-finance-45" d="M303.5,123.4c0,0,44.5-2.2,53.5,27.1v58.8c0,0-34.6-27.3-53.5-18.1V123.4z"/>
	<path class="st1_personal-finance-45" d="M357,210c-0.2,0-0.3-0.1-0.4-0.1c-0.3-0.3-34.5-26.9-52.8-18.1c-0.4,0.2-0.8,0-0.9-0.4c0-0.1-0.1-0.2-0.1-0.3&#10;&#9;&#9;v-67.8c0-0.4,0.3-0.7,0.7-0.7c0.4,0,45.1-1.9,54.2,27.6c0,0.1,0,0.1,0,0.2v58.8c0,0.3-0.2,0.5-0.4,0.6C357.2,210,357.1,210,357,210&#10;&#9;&#9;L357,210z M312.5,188.6c6.9,0,15.3,2.5,25.1,7.6c6.5,3.4,12.7,7.3,18.6,11.7v-57.2c-8.2-26.5-46.5-26.7-52.1-26.6v66&#10;&#9;&#9;C306.9,189,309.7,188.5,312.5,188.6L312.5,188.6z"/>
	<path class="st1_personal-finance-45" d="M348,192c-0.3,0-0.6-0.2-0.7-0.6c-2.6-12.5-7.6-30.2-10.7-30.5c-1.7-0.2-2.6,3.8-3.4,7.4c-0.9,4-1.8,7.8-4,8.6&#10;&#9;&#9;c-1.1,0.3-2.2,0.1-3.1-0.6c-6.9-4.6-14.2-33.9-14.5-35.2c-0.1-0.4,0.1-0.8,0.5-0.9c0.4-0.1,0.8,0.1,0.8,0.5c0,0,0,0,0,0&#10;&#9;&#9;c0.1,0.3,7.4,30,13.9,34.4c0.5,0.4,1.2,0.6,1.8,0.4c1.5-0.6,2.4-4.4,3.1-7.7c1-4.5,2-8.7,4.9-8.4c5.3,0.5,10.9,26.4,12,31.6&#10;&#9;&#9;c0.1,0.4-0.2,0.7-0.5,0.8c0,0,0,0,0,0L348,192L348,192z"/>
	<path class="st0_personal-finance-45" d="M357,150.5c0,0-3,24-18,29.1v52.1c0,0,11.2-5.1,18-22.5V150.5z"/>
	<path class="st1_personal-finance-45" d="M339,232.4c-0.1,0-0.3,0-0.4-0.1c-0.2-0.1-0.3-0.4-0.3-0.6v-52.1c0-0.3,0.2-0.6,0.5-0.7&#10;&#9;&#9;c14.3-4.9,17.5-28.3,17.5-28.5c0-0.4,0.4-0.6,0.7-0.6c0.4,0,0.7,0.3,0.7,0.7v58.8c0,0.1,0,0.2,0,0.2c-6.8,17.5-17.9,22.6-18.3,22.9&#10;&#9;&#9;C339.2,232.4,339.1,232.5,339,232.4L339,232.4z M339.7,180.1v50.4c2.9-1.7,11.2-7.6,16.6-21.4v-51.8&#10;&#9;&#9;C354.3,164.8,349.6,176.4,339.7,180.1z"/>
	<path class="st1_personal-finance-45" d="M331.8,136.6c-0.1,0-0.3,0-0.4-0.1c-2.5-1.5-5.2-2.5-8.1-2.9c-0.4,0-0.7-0.4-0.6-0.8c0-0.4,0.4-0.7,0.8-0.6&#10;&#9;&#9;c3.1,0.4,6.1,1.5,8.8,3.1c0.3,0.2,0.4,0.7,0.2,1C332.2,136.4,332,136.5,331.8,136.6L331.8,136.6z"/>
	<path class="st1_personal-finance-45" d="M331.2,141.2c-0.1,0-0.3,0-0.4-0.1c-1.6-1-3.4-1.8-5.2-2.3c-0.4-0.1-0.6-0.4-0.6-0.8c0,0,0,0,0,0&#10;&#9;&#9;c0.1-0.4,0.4-0.6,0.8-0.6c0,0,0,0,0,0c2,0.5,4,1.3,5.8,2.5c0.3,0.2,0.4,0.7,0.2,1c0,0,0,0,0,0C331.6,141.1,331.4,141.2,331.2,141.2&#10;&#9;&#9;L331.2,141.2z"/>
</g>
<g id="Foliage_personal-finance-45">
	<path class="st1_personal-finance-45" d="M456.2,335.5c-0.4-1.5-1.4-2.7-2-4.1c-2.5-5.6,2.4-11.4,5.8-16.4c2.9-4.3,5-9.1,6.1-14.2&#10;&#9;&#9;c0.4-1.2,0.3-2.5-0.3-3.6c-0.6-0.8-1.5-1.2-2.5-1.2c-3.1-0.2-5.7,2.5-7.3,5.2s-2.7,5.9-5.1,7.9c-4.8,3.8-13.4,2.4-15.9,8&#10;&#9;&#9;c-1.5,3.5,0.4,8.1-2.2,11c-0.9,0.9-2,1.5-3.1,2c-6.8,3.2-12.9,8-16.6,14.6c-8.1,14.6,5.2,39.5,23.5,31.1&#10;&#9;&#9;c11.3-5.2,7.8-14.7,9.5-23.9C447.2,345.9,457.8,341.9,456.2,335.5L456.2,335.5z"/>
	<path class="st1_personal-finance-45" d="M429.3,378.1c-4.8-0.1-9.4-2.2-12.5-5.8c-6.9-7.5-8.8-19.8-4.3-28c4.2-7.7,11.5-12.3,16.9-14.9l0.2-0.1&#10;&#9;&#9;c1-0.4,1.9-1,2.7-1.7c1.3-1.4,1.3-3.4,1.3-5.5c-0.1-1.8,0.2-3.6,0.8-5.3c1.6-3.5,5.4-4.5,9-5.4c2.5-0.6,5.2-1.3,7.1-2.8&#10;&#9;&#9;c1.7-1.4,2.8-3.4,3.9-5.6c0.4-0.7,0.7-1.4,1.1-2.1c1-1.8,3.8-5.9,7.9-5.6c1.2,0,2.3,0.6,3,1.5c0.7,1.3,0.9,2.8,0.4,4.2&#10;&#9;&#9;c-1.1,5.2-3.2,10.1-6.2,14.4c-0.4,0.5-0.8,1.1-1.1,1.7c-3.1,4.4-6.6,9.5-4.6,14c0.2,0.5,0.5,1,0.8,1.5c0.5,0.8,1,1.7,1.2,2.7l0,0&#10;&#9;&#9;c1,3.9-2.1,6.9-5.1,9.8c-2.2,2.2-4.6,4.4-5,6.9c-0.4,2.3-0.6,4.7-0.6,7c-0.3,6.9-0.5,13.4-9.3,17.4&#10;&#9;&#9;C434.5,377.5,431.9,378.1,429.3,378.1L429.3,378.1z M463,296.7c-3.2,0-5.5,3.4-6.3,4.9c-0.4,0.7-0.7,1.4-1.1,2&#10;&#9;&#9;c-1.1,2.2-2.2,4.5-4.2,6c-2.1,1.7-4.9,2.4-7.6,3.1c-3.5,0.9-6.8,1.7-8.1,4.6c-0.5,1.5-0.7,3.1-0.6,4.7c0,2.3,0,4.7-1.6,6.5&#10;&#9;&#9;c-0.9,0.9-2,1.5-3.1,2l-0.2,0.1c-5.2,2.5-12.2,6.9-16.2,14.3c-4.3,7.7-2.5,19.3,4.1,26.3c5.1,5.5,11.8,6.9,18.5,3.8&#10;&#9;&#9;c8-3.7,8.2-9.5,8.5-16.2c0-2.4,0.2-4.8,0.6-7.2c0.5-2.9,3-5.3,5.4-7.6c2.8-2.7,5.5-5.3,4.8-8.4c-0.3-0.8-0.6-1.6-1.1-2.3&#10;&#9;&#9;c-0.3-0.5-0.6-1.1-0.9-1.6c-2.4-5.3,1.4-10.7,4.7-15.4l1.1-1.6c2.9-4.2,4.9-9,6-13.9c0.4-1,0.3-2.1-0.2-3.1c-0.5-0.6-1.2-0.9-2-0.9&#10;&#9;&#9;L463,296.7z"/>
	<path class="st1_personal-finance-45" d="M66.3,339.9c-5-3.3-6-10.1-8.9-15.3c-4-7.2-11.7-11.5-19.5-14.1c-1.3-0.4-3-0.7-3.8,0.4&#10;&#9;&#9;c-0.4,0.6-0.5,1.3-0.4,2c0.4,7.7,8.5,13.5,8.7,21.2c0.1,4.3-2.2,8.8-0.3,12.7s7.2,4.9,8.8,8.8c1.2,2.7,0.2,5.8,0.3,8.7&#10;&#9;&#9;c0.2,19.9,36.6,21.7,44.6,6.9c3.6-6.7,0.9-14.9-3.5-20.5C84.7,341.2,75,345.6,66.3,339.9L66.3,339.9z"/>
	<path class="st1_personal-finance-45" d="M74.2,381.5c-2.8,0-5.6-0.3-8.3-1c-9.6-2.4-15.4-8.5-15.5-16.4c0-1,0.1-1.9,0.2-2.9c0.2-2,0.4-3.9-0.4-5.6&#10;&#9;&#9;s-2.5-3-4.2-4.2s-3.6-2.5-4.6-4.5c-1.3-2.6-0.8-5.5-0.3-8.3c0.3-1.5,0.5-3.1,0.5-4.6c-0.1-3.7-2.1-7-4.2-10.4s-4.2-6.8-4.4-10.8&#10;&#9;&#9;c-0.1-0.9,0.1-1.7,0.6-2.5c0.9-1.1,2.4-1.3,4.6-0.6c9.7,3.2,16.4,8,19.9,14.4c0.9,1.8,1.7,3.6,2.4,5.4c1.5,3.9,3,7.6,6.2,9.7l0,0&#10;&#9;&#9;c3.5,2.3,7.3,2.9,11,3.5c5.2,0.8,10.5,1.7,15.1,7.4c4.1,5.2,7.6,13.8,3.6,21.2C92.6,378.3,83.3,381.6,74.2,381.5L74.2,381.5z&#10;&#9;&#9; M35.9,310.8c-0.5,0-0.9,0.1-1.2,0.5c-0.3,0.5-0.4,1-0.3,1.5c0.2,3.6,2.2,6.8,4.2,10.1s4.3,7,4.4,11.1c0,1.7-0.2,3.3-0.6,4.9&#10;&#9;&#9;c-0.5,2.7-1,5.2,0.2,7.5c0.8,1.7,2.5,2.8,4.2,4s3.8,2.7,4.7,4.8s0.7,4.2,0.5,6.3c-0.1,0.9-0.2,1.8-0.2,2.7&#10;&#9;&#9;c0.1,10.4,10.1,14,14.4,15c10.3,2.5,24.3,0,28.8-8.5c3.7-6.8,0.4-14.9-3.5-19.7c-4.2-5.2-9-6-14.2-6.9c-3.8-0.6-7.7-1.2-11.5-3.7&#10;&#9;&#9;c-3.6-2.4-5.2-6.4-6.8-10.3c-0.7-1.8-1.4-3.5-2.3-5.2c-3.3-6-9.8-10.6-19.1-13.7C37.2,310.9,36.6,310.7,35.9,310.8L35.9,310.8z"/>
	<path class="st1_personal-finance-45" d="M93,317.2c0.1-3.3,2.1-6.2,2.5-9.4c1.1-8.1-6.9-14-12.2-20.3c-5.6-6.6-8.5-15-11.8-23.1&#10;&#9;&#9;c-1.2-2.9-2.5-5.9-5-7.9s-6.4-2.3-8.6,0c-1.6,1.7-1.7,4.3-1.5,6.6c0.4,5.6,1.7,11.1,3.9,16.3c2,4.6,4.7,9.4,3.9,14.4&#10;&#9;&#9;c-0.7,4.1-3.7,7.3-6.1,10.7s-4.1,7.9-2.2,11.6c1.2,2.2,3.5,3.6,5.5,5.2c7.7,6.4,10.9,16.8,7.9,26.4c-0.8,2.4-2,4.8-2.2,7.4&#10;&#9;&#9;c-0.4,4.3,2,8.5,5,11.6c11,11.5,40.3,13.5,45-5.6c2.1-8.3-1.7-19.2-7.4-25.2C104.4,330.2,92.6,326.4,93,317.2L93,317.2z"/>
	<path class="st1_personal-finance-45" d="M95.4,375.9c-8.9,0-18.3-3.3-23.7-8.9c-2.2-2.2-5.7-6.8-5.2-12.2c0.3-1.8,0.8-3.7,1.5-5.4&#10;&#9;&#9;c0.3-0.7,0.5-1.4,0.8-2.1c2.8-9.3-0.2-19.4-7.7-25.6c-0.4-0.3-0.8-0.6-1.3-1c-1.8-1.1-3.3-2.6-4.4-4.4c-2.4-4.5,0.4-9.6,2.2-12.3&#10;&#9;&#9;c0.5-0.7,1-1.5,1.6-2.2c1.9-2.5,3.8-5.2,4.4-8.2c0.7-4-1.1-7.9-2.8-11.7c-0.3-0.8-0.7-1.5-1-2.3c-2.2-5.2-3.6-10.8-4-16.5&#10;&#9;&#9;c-0.2-2.3-0.1-5.2,1.7-7.2c2.5-2.7,6.9-2.1,9.5,0s3.9,5,5.2,8.2l1.1,2.7c2.8,7.1,5.7,14.4,10.6,20.2c1.1,1.3,2.4,2.7,3.6,4&#10;&#9;&#9;c4.7,5,9.6,10.2,8.7,16.9c-0.2,1.5-0.7,3-1.2,4.4c-0.7,1.6-1.1,3.2-1.2,4.9l0,0c-0.2,6,5.1,9.6,10.2,13.1c2.3,1.5,4.4,3.1,6.4,5&#10;&#9;&#9;c6.3,6.6,9.6,17.7,7.6,25.8c-1.7,6.9-6.8,11.8-14.3,13.8C100.9,375.6,98.2,375.9,95.4,375.9L95.4,375.9z M62,255.6&#10;&#9;&#9;c-1.3,0-2.5,0.4-3.4,1.4c-1.4,1.6-1.5,4.1-1.3,6.1c0.4,5.5,1.7,11,3.9,16.1c0.3,0.7,0.7,1.5,1,2.2c1.8,4,3.7,8.1,2.9,12.5&#10;&#9;&#9;c-0.6,3.4-2.6,6.1-4.6,8.8c-0.5,0.7-1.1,1.4-1.5,2.1c-1.3,2-4.3,6.9-2.2,10.9c1,1.6,2.4,2.9,4,3.9c0.5,0.3,0.9,0.7,1.3,1&#10;&#9;&#9;c7.9,6.6,11.1,17.3,8.1,27.1c-0.2,0.7-0.5,1.5-0.8,2.2c-0.7,1.6-1.2,3.3-1.4,5c-0.5,4.8,2.8,9,4.8,11.1c6.7,7,20.1,10.3,30.5,7.5&#10;&#9;&#9;c5-1.3,11.3-4.6,13.4-12.8c2.1-8.4-2.1-19.1-7.3-24.5c-1.9-1.8-4-3.4-6.2-4.8c-5.2-3.5-11.1-7.5-10.8-14.3c0.2-1.8,0.6-3.6,1.3-5.3&#10;&#9;&#9;c0.5-1.3,0.9-2.7,1.2-4.1c0.8-6-3.8-11-8.3-15.7c-1.2-1.3-2.5-2.7-3.7-4c-5-6-8-13.4-10.8-20.6l-1.1-2.7c-1.2-3-2.5-5.8-4.7-7.6&#10;&#9;&#9;C65,256.1,63.5,255.6,62,255.6L62,255.6z M93,317.2L93,317.2z"/>
</g>
<g id="Bar_Chart_personal-finance-45">
	<rect x="332" y="290.3" class="st3_personal-finance-45 targetColor" width="98.2" height="91.5" style="fill: rgb(104, 225, 253);"/>
	<path class="st1_personal-finance-45" d="M430.3,382.4H332c-0.4,0-0.7-0.3-0.7-0.7v0v-91.5c0-0.4,0.3-0.7,0.7-0.7h0h98.2c0.4,0,0.7,0.3,0.7,0.7v0v91.5&#10;&#9;&#9;C431,382.1,430.7,382.4,430.3,382.4L430.3,382.4z M332.8,381h96.8v-90h-96.8V381z"/>
	<rect x="205.8" y="247.2" class="st3_personal-finance-45 targetColor" width="98.2" height="134.5" style="fill: rgb(104, 225, 253);"/>
	<path class="st1_personal-finance-45" d="M304,382.4h-98.2c-0.4,0-0.7-0.3-0.7-0.7l0,0V247.2c0-0.4,0.3-0.7,0.7-0.7H304c0.4,0,0.7,0.3,0.7,0.7&#10;&#9;&#9;c0,0,0,0,0,0v134.5C304.7,382.1,304.4,382.4,304,382.4L304,382.4z M206.5,381h96.8V247.9h-96.8V381z"/>
	<rect x="79.6" y="177.4" class="st3_personal-finance-45 targetColor" width="98.2" height="204.3" style="fill: rgb(104, 225, 253);"/>
	<path class="st1_personal-finance-45" d="M177.8,382.4H79.6c-0.4,0-0.7-0.3-0.7-0.7l0,0V177.4c0-0.4,0.3-0.7,0.7-0.7h98.2c0.4,0,0.7,0.3,0.7,0.7v204.3&#10;&#9;&#9;C178.5,382.1,178.2,382.4,177.8,382.4C177.8,382.4,177.8,382.4,177.8,382.4z M80.3,381h96.8V178.1H80.3V381z"/>
</g>
<g id="Character-2_personal-finance-45">
	<path class="st0_personal-finance-45" d="M280.8,191.1c0,0,4.7-3.1,6.9-4.5s4.7-5.6,6.5-5.4s-2.1,5.2-2.1,5.2s7.3-4.3,9.4-4.2s2.8,3.8,2.2,4.8&#10;&#9;&#9;s-6.6,3-9,4.8s-9.8,5.7-9.8,5.7"/>
	<path class="st1_personal-finance-45" d="M284.9,198.2c-0.3,0-0.5-0.1-0.6-0.4c-0.2-0.3-0.1-0.8,0.3-0.9c0,0,0,0,0,0c0.1,0,7.4-3.9,9.7-5.6&#10;&#9;&#9;c1.7-1.1,3.5-2.1,5.4-2.9c1.2-0.5,2.4-1.1,3.5-1.8c0.2-0.9,0.1-1.8-0.4-2.7c-0.2-0.5-0.7-0.9-1.3-1c-1.3-0.1-6.3,2.5-9,4.1&#10;&#9;&#9;c-0.3,0.2-0.8,0-0.9-0.3c-0.1-0.2-0.1-0.5,0-0.7c1-1.2,1.8-2.6,2.4-4.1c-0.8,0.1-2,1.5-3,2.6c-0.8,1-1.8,1.9-2.9,2.7&#10;&#9;&#9;c-2.2,1.4-6.9,4.5-6.9,4.5l-0.8-1.2l6.9-4.5c1-0.7,1.8-1.6,2.6-2.5c1.5-1.7,2.9-3.2,4.4-3c0.4,0,0.8,0.3,1,0.7&#10;&#9;&#9;c0.3,0.7-0.2,1.9-0.9,3.1c2.4-1.3,5.7-2.9,7.1-2.8c1.1,0.1,2,0.8,2.4,1.8c0.7,1.4,0.8,3.2,0.3,4.1c-0.4,0.6-1.7,1.2-4.1,2.3&#10;&#9;&#9;c-1.8,0.7-3.5,1.6-5.1,2.7c-2.4,1.9-9.6,5.6-9.9,5.8c-0.1,0.1-0.2,0.1-0.3,0.1L284.9,198.2z"/>
	<path class="st0_personal-finance-45" d="M287,162.7c2.3-1.2,4.7-2.2,7.2-2.9c2.8-0.6,6.4-0.8,5.7-2s-7.3-0.4-7.3-0.4c3-0.4,5.9-9.7,6.8-11.9&#10;&#9;&#9;c0.2-0.4,0.3-0.8,0.2-1.1c0-0.4-0.4-0.7-0.8-0.8c-0.3,0.1-0.5,0.2-0.7,0.4c-5.1,4.7-9.7,9.5-15,14.1&#10;&#9;&#9;C282.6,158.6,287,162.7,287,162.7L287,162.7z"/>
	<path class="st1_personal-finance-45" d="M287,163.4c-0.2,0-0.3-0.1-0.5-0.2c-4.1-3.9-4.1-4.7-4-5c0-0.2,0.1-0.5,0.3-0.6c3.3-2.8,6.3-5.7,9.2-8.6&#10;&#9;&#9;c1.9-1.8,3.8-3.7,5.8-5.5c0.3-0.3,0.7-0.5,1.1-0.6c0.8,0,1.4,0.6,1.5,1.4c0,0.5-0.1,1-0.3,1.5c-0.1,0.3-0.3,0.8-0.5,1.3&#10;&#9;&#9;c-1.3,3.6-2.8,7.3-4.5,9.4c2.5-0.2,4.9,0,5.4,1c0.2,0.4,0.2,0.8,0,1.1c-0.5,0.9-1.9,1.2-4.4,1.6c-0.6,0.1-1.3,0.2-1.9,0.3&#10;&#9;&#9;c-2.4,0.7-4.8,1.6-7,2.8C287.3,163.4,287.1,163.4,287,163.4L287,163.4z M284,158.3c1,1.2,2,2.4,3.1,3.5c2.2-1.2,4.5-2.1,6.9-2.7&#10;&#9;&#9;c0.6-0.1,1.3-0.2,1.9-0.3c1.1-0.1,2.2-0.4,3.2-0.7c-0.7-0.3-3.5-0.3-6.5,0.1c-0.4,0.1-0.7-0.2-0.8-0.6c-0.1-0.4,0.2-0.7,0.6-0.8&#10;&#9;&#9;l0,0c2.2-0.3,4.8-7.4,5.8-10.1c0.2-0.6,0.4-1,0.5-1.4c0.1-0.2,0.2-0.5,0.2-0.8c0-0.1,0-0.1-0.1-0.2c0,0-0.1,0.2-0.2,0.2&#10;&#9;&#9;c-2,1.8-3.9,3.7-5.7,5.5C290.1,152.8,287.2,155.6,284,158.3L284,158.3z"/>
	<path class="st0_personal-finance-45" d="M239.6,165.3c0,0,23.2,6.3,26.9,5.8l15.9-14l7.6,6.4c0,0-5.9,12.4-12.7,19.1s-45.7,3.6-45.7,3.6L239.6,165.3&#10;&#9;&#9;L239.6,165.3z"/>
	<path class="st1_personal-finance-45" d="M250.7,187.6c-9.7,0-18.4-0.7-19.2-0.8c-0.2,0-0.4-0.1-0.5-0.3c-0.1-0.2-0.1-0.4-0.1-0.6l8.1-20.9&#10;&#9;&#9;c0.1-0.3,0.5-0.5,0.8-0.4c6.3,1.7,23,6,26.5,5.8l15.7-13.8c0.3-0.2,0.6-0.2,0.9,0l7.6,6.4c0.2,0.2,0.3,0.6,0.2,0.8&#10;&#9;&#9;c-0.2,0.5-6,12.6-12.8,19.3C274.1,186.8,261.7,187.6,250.7,187.6L250.7,187.6z M232.6,185.6c6,0.4,38.3,2.4,44.3-3.5&#10;&#9;&#9;s11.2-16.1,12.3-18.4l-6.7-5.6L267,171.6c-0.1,0.1-0.2,0.1-0.4,0.2c-3.5,0.5-22.8-4.6-26.6-5.6L232.6,185.6L232.6,185.6z"/>
	<path class="st1_personal-finance-45" d="M274.2,308.3c0,0-4.8,4.5-4.5,7s14.7,18.7,16.4,17.1s-3-15.5-3-15.5L274.2,308.3z"/>
	<path class="st1_personal-finance-45" d="M285.9,333.1c-0.2,0-0.5,0-0.7-0.1c-3.6-1.3-15.8-15.2-16.1-17.7c-0.4-2.7,4.2-7.1,4.7-7.6&#10;&#9;&#9;c0.3-0.3,0.7-0.3,1,0l8.9,8.6c0.1,0.1,0.1,0.2,0.2,0.3c1.5,4.3,4.7,14.5,2.8,16.2C286.5,333,286.2,333.1,285.9,333.1L285.9,333.1z&#10;&#9;&#9; M274.2,309.2c-1.7,1.7-4,4.5-3.8,5.9c0.3,2.5,13.1,16.2,15.3,16.6c0.6-1.1-0.9-7.6-3.2-14.5L274.2,309.2z"/>
	<polygon class="st0_personal-finance-45" points="281.3,296.7 274.2,308.3 283.1,316.9 292.2,303.4 &#9;"/>
	<path class="st1_personal-finance-45" d="M283.1,317.6c-0.2,0-0.4-0.1-0.5-0.2l-8.9-8.6c-0.2-0.2-0.3-0.6-0.1-0.9l7.1-11.6c0.1-0.2,0.3-0.3,0.4-0.3&#10;&#9;&#9;c0.2,0,0.4,0,0.5,0.1l11,6.7c0.2,0.1,0.3,0.3,0.3,0.5c0,0.2,0,0.4-0.1,0.5l-9.1,13.4C283.6,317.4,283.4,317.5,283.1,317.6&#10;&#9;&#9;L283.1,317.6L283.1,317.6z M275.1,308.1l7.9,7.6l8.2-12.1l-9.8-6L275.1,308.1L275.1,308.1z"/>
	<path class="st1_personal-finance-45" d="M260.6,224c0,0,39.8,15.4,47.1,23s-4.7,54-15.5,61.5l-14.4-10c0,0,12.6-35.2,10-38.5s-36-11.9-36-11.9&#10;&#9;&#9;l-19.1-27.5L260.6,224L260.6,224z"/>
	<path class="st1_personal-finance-45" d="M292.1,309.2c-0.1,0-0.3,0-0.4-0.1l-14.4-10c-0.3-0.2-0.4-0.5-0.3-0.8c6.1-17.1,11.6-36,10.1-37.9&#10;&#9;&#9;c-1.8-2.3-22.3-8.2-35.6-11.6c-0.2,0-0.3-0.1-0.4-0.3L232,221c-0.1-0.2-0.1-0.5,0-0.8c0.1-0.2,0.4-0.4,0.7-0.3l28,3.3&#10;&#9;&#9;c0.1,0,0.1,0,0.2,0c1.6,0.6,40,15.6,47.3,23.2c2.7,2.9,2.7,10,2.1,15.6c-1.7,16.9-10,41.6-17.8,47&#10;&#9;&#9;C292.4,309.1,292.3,309.1,292.1,309.2L292.1,309.2z M278.6,298.3l13.5,9.4c7.4-5.7,15.1-29.4,16.8-45.7c0.7-7.4,0.1-12.6-1.7-14.5&#10;&#9;&#9;c-6.9-7.2-44.7-22-46.8-22.8l-26.4-3.1l18.1,26c4.4,1.1,33.5,8.7,36.1,12C288.7,260.1,290.5,264.8,278.6,298.3L278.6,298.3z"/>
	<polygon class="st0_personal-finance-45" points="244.2,325 241.5,336.1 251.8,342.7 256.1,327.4 &#9;"/>
	<path class="st1_personal-finance-45" d="M251.8,343.4c-0.1,0-0.3,0-0.4-0.1l-10.3-6.5c-0.3-0.2-0.4-0.5-0.3-0.8l2.7-11.1c0.1-0.4,0.5-0.6,0.8-0.5&#10;&#9;&#9;l12,2.4c0.4,0.1,0.6,0.5,0.5,0.8c0,0,0,0,0,0l-4.4,15.3c-0.1,0.2-0.2,0.4-0.4,0.5C252,343.4,251.9,343.4,251.8,343.4L251.8,343.4z&#10;&#9;&#9; M242.3,335.8l9.1,5.8l3.9-13.6l-10.6-2.1L242.3,335.8L242.3,335.8z"/>
	<path class="st1_personal-finance-45" d="M219.1,229.6c0,0-3.8,17.7,6.1,19.2c17.8,2.7,26.7,16.2,26.9,25.5c0.1,12.9-10.9,52.6-10.9,52.6l18.2,6.8&#10;&#9;&#9;c0,0,20.1-51.9,17.2-66.2s-25.6-45.9-25.6-45.9L219.1,229.6L219.1,229.6z"/>
	<path class="st1_personal-finance-45" d="M259.3,334.4c-0.1,0-0.2,0-0.2,0l-18.2-6.8c-0.3-0.1-0.5-0.5-0.4-0.8c0.1-0.4,11-39.8,10.9-52.4&#10;&#9;&#9;c-0.2-14.2-15.8-23.2-26.3-24.8c-2.1-0.3-4-1.4-5.1-3.2c-3.9-5.6-1.6-16.4-1.5-16.9c0.1-0.3,0.3-0.5,0.5-0.5l31.7-8.1&#10;&#9;&#9;c0.3-0.1,0.6,0,0.7,0.3c0.9,1.3,22.9,32,25.8,46.2c2.9,14.2-16.4,64.4-17.2,66.6C259.8,334.2,259.5,334.4,259.3,334.4L259.3,334.4z&#10;&#9;&#9; M241.9,326.4l17,6.3c2.3-6,19.6-52.1,16.9-65.1s-22.7-41.6-25.3-45.3l-30.9,7.8c-0.4,2-1.7,10.8,1.4,15.4c0.9,1.4,2.5,2.4,4.2,2.6&#10;&#9;&#9;c18.8,2.9,27.3,17,27.4,26.2C252.8,286.4,243.3,321.2,241.9,326.4L241.9,326.4z"/>
	<path class="st0_personal-finance-45" d="M228.4,150.9c-9.2-2.5-6.7-17-4.9-23.9c0.3-1.5,1-2.8,2.1-3.9c1.2-0.9,3.2-1,4,0.3c-0.2-1.9,1.7-3.4,3.5-4.2&#10;&#9;&#9;c3.5-1.3,7.3-1.3,10.7,0.1c2.4,1,4.5,2.6,7.1,3s5.7-0.8,5.9-3.4c2.3,2.4,3.4,5.7,2.9,9c-0.6,3.5-2.7,5.1-5.1,7.3s-3.1,5.6-5.8,7.4&#10;&#9;&#9;c-5.1,3.3-7.8,8-14.3,8.6C232.3,151.5,230.3,151.4,228.4,150.9L228.4,150.9z"/>
	<path class="st1_personal-finance-45" d="M232.2,152.1c-1.3,0-2.7-0.1-4-0.5c-10-2.7-7.1-18.2-5.4-24.8c0.3-1.6,1.1-3.1,2.3-4.3c0.8-0.7,1.9-0.9,3-0.8&#10;&#9;&#9;c0.3,0,0.6,0.1,0.8,0.3c0.7-1.6,2.1-2.9,3.8-3.4c3.6-1.4,7.6-1.4,11.3,0.1c0.9,0.4,1.8,0.8,2.6,1.2c1.3,0.8,2.8,1.4,4.3,1.7&#10;&#9;&#9;c1.4,0.3,2.8,0,4-0.9c0.6-0.4,1-1.1,1.1-1.9c0-0.3,0.2-0.5,0.5-0.6c0.3-0.1,0.5,0,0.7,0.2c2.5,2.5,3.6,6.1,3,9.6&#10;&#9;&#9;c-0.6,3.4-2.4,5-4.6,7l-0.8,0.7c-0.9,1-1.8,2-2.4,3.2c-0.8,1.7-2.1,3.1-3.6,4.2c-1.5,1-3,2.2-4.3,3.4c-2.9,2.5-5.7,4.9-10.3,5.4&#10;&#9;&#9;C233.6,152.1,232.9,152.1,232.2,152.1L232.2,152.1z M227.5,123.1c-0.6,0-1.1,0.2-1.6,0.5c-1,1-1.6,2.2-1.8,3.5&#10;&#9;&#9;c-1.6,6.1-4.4,20.7,4.4,23.1l0,0c1.9,0.5,3.8,0.6,5.7,0.3c4.2-0.4,6.6-2.6,9.5-5c1.4-1.3,2.9-2.4,4.5-3.5c1.3-1,2.4-2.3,3.1-3.8&#10;&#9;&#9;c0.7-1.3,1.6-2.5,2.6-3.6l0.8-0.7c2-1.8,3.7-3.3,4.1-6.2c0.4-2.6-0.2-5.3-1.9-7.5c-0.3,0.6-0.8,1.1-1.3,1.5c-1.5,1-3.3,1.4-5.1,1.1&#10;&#9;&#9;c-1.7-0.4-3.2-1-4.7-1.9c-0.8-0.4-1.6-0.8-2.5-1.2c-3.3-1.3-6.9-1.3-10.2-0.1c-1.6,0.6-3.2,2-3.1,3.4c0,0.3-0.2,0.6-0.5,0.7&#10;&#9;&#9;c-0.3,0.1-0.6,0-0.8-0.3c-0.2-0.3-0.6-0.6-1-0.6C227.8,123.1,227.6,123.1,227.5,123.1L227.5,123.1z"/>
	<path class="st0_personal-finance-45" d="M251,143.6c0,0,2.7,6.9,1.6,7.9s-3.6-0.3-3.6-0.3"/>
	<path class="st1_personal-finance-45" d="M251.5,152.6c-1-0.1-2-0.3-2.8-0.8c-0.3-0.2-0.5-0.6-0.3-0.9s0.6-0.5,0.9-0.3l0,0c0.9,0.5,2.3,0.9,2.8,0.4&#10;&#9;&#9;s-0.5-3.9-1.8-7.2c-0.1-0.4,0-0.8,0.4-0.9s0.8,0,0.9,0.4l0,0c1.1,2.7,2.7,7.5,1.5,8.7C252.7,152.4,252.1,152.6,251.5,152.6&#10;&#9;&#9;L251.5,152.6z"/>
	<path class="st0_personal-finance-45" d="M251.9,135.4c2.1,2.6,0.4,6.8-0.2,9.6c-0.9,4-1.8,8-2.9,11.9c-0.7,2.5-7.2,1.2-8.2,0.2l-1.2,8.5&#10;&#9;&#9;c0,0-2.5,4.3-7.3,0.7s-5.3-7.2-5.3-7.2l2.9-11.5c0,0,4.3,0.9,8-3.7s5.2-12.6,5.2-12.6S249.8,132.9,251.9,135.4L251.9,135.4z"/>
	<path class="st1_personal-finance-45" d="M235.7,168.5c-1.5-0.1-2.9-0.6-4-1.6c-4.9-3.7-5.6-7.5-5.6-7.7c0-0.1,0-0.2,0-0.3l2.9-11.5&#10;&#9;&#9;c0.1-0.4,0.5-0.6,0.8-0.5c0.2,0,4,0.8,7.3-3.4c3.5-4.4,5.1-12.2,5.1-12.3c0-0.2,0.1-0.3,0.3-0.4c0.2-0.1,0.3-0.1,0.5-0.1&#10;&#9;&#9;c0.3,0.1,7.2,1.5,9.4,4.2l0,0c2,2.4,1.1,5.9,0.3,8.7c-0.1,0.5-0.3,1-0.4,1.5c-0.9,4-1.9,8-2.9,11.9c-0.3,0.9-1.1,1.6-2,1.7&#10;&#9;&#9;c-2.1,0.4-4.3,0.1-6.4-0.6l-1,7.5c0,0.1,0,0.2-0.1,0.3c-0.8,1.2-2,2.1-3.4,2.4C236.4,168.5,236.1,168.5,235.7,168.5L235.7,168.5z&#10;&#9;&#9; M227.5,159.2c0.1,0.6,1,3.7,5,6.6c1,0.9,2.4,1.4,3.8,1.2c1-0.2,1.8-0.8,2.4-1.6l1.1-8.4c0-0.3,0.2-0.5,0.5-0.6&#10;&#9;&#9;c0.3-0.1,0.5,0,0.7,0.2c0.5,0.5,4.1,1.4,6.1,0.9c0.6-0.2,0.9-0.4,1-0.8c1.1-3.9,2-7.9,2.9-11.9c0.1-0.5,0.2-1,0.4-1.6&#10;&#9;&#9;c0.6-2.5,1.4-5.6-0.1-7.5l0,0c-1.4-1.7-5.7-3-7.9-3.6c-0.5,2.1-2.1,8.2-5.2,12.2s-6.5,4.1-8,4L227.5,159.2L227.5,159.2z"/>
	<path class="st0_personal-finance-45" d="M249.3,154c0,0-3.5,1.2-4.5-2.3"/>
	<path class="st1_personal-finance-45" d="M248,154.9c-0.6,0-1.3-0.1-1.8-0.4c-1-0.6-1.7-1.5-1.9-2.6c-0.1-0.4,0.1-0.8,0.5-0.9c0.4-0.1,0.8,0.1,0.9,0.5&#10;&#9;&#9;c0,0,0,0,0,0c0.1,0.7,0.6,1.4,1.2,1.7c0.7,0.3,1.6,0.3,2.3,0.1c0.4-0.1,0.8,0.1,0.9,0.4s-0.1,0.8-0.4,0.9&#10;&#9;&#9;C249.1,154.8,248.5,154.9,248,154.9L248,154.9z"/>
	<path class="st0_personal-finance-45" d="M242.8,144.5c0.1-1-0.1-2.1-0.5-3c-0.2-0.8-0.6-1.5-1.1-2.1c-0.5-0.6-1.2-1.1-2-1.1c-0.7,0-1.4,0.4-1.8,0.9&#10;&#9;&#9;c-0.4,0.6-0.8,1.2-0.9,1.9c-0.8,3,0.1,6.2,2.4,8.4l-0.2-0.3"/>
	<path class="st1_personal-finance-45" d="M238.8,150.2c-0.2,0-0.4-0.1-0.5-0.2c-2.4-2.4-3.4-5.8-2.6-9.1c0.2-0.8,0.5-1.5,1.1-2.1&#10;&#9;&#9;c0.6-0.7,1.4-1.1,2.4-1.1l0,0c1,0,2,0.5,2.6,1.4c0.5,0.7,0.9,1.5,1.2,2.3c0.5,1,0.7,2.2,0.6,3.4c-0.1,0.4-0.4,0.6-0.8,0.6&#10;&#9;&#9;c-0.4-0.1-0.6-0.4-0.6-0.8c0,0,0,0,0,0c0.1-0.9-0.1-1.8-0.5-2.6c-0.2-0.7-0.6-1.3-1-1.9c-0.3-0.5-0.9-0.8-1.5-0.8l0,0&#10;&#9;&#9;c-0.5,0-1,0.3-1.3,0.7c-0.4,0.5-0.6,1-0.8,1.6c-0.7,2.6,0,5.3,1.7,7.3c0.2,0.1,0.3,0.2,0.4,0.3l0.2,0.3c0.2,0.3,0.1,0.7-0.2,1&#10;&#9;&#9;C239.1,150.2,238.9,150.2,238.8,150.2L238.8,150.2z"/>
	<path class="st1_personal-finance-45" d="M240.6,157.1c0,0-3.2-1.8-4.3-4.4c0,0-1,6.1,3.8,9L240.6,157.1L240.6,157.1z"/>
	<path class="st1_personal-finance-45" d="M240.1,162.4c-0.1,0-0.3,0-0.4-0.1c-5.2-3.1-4.2-9.4-4.1-9.7c0.1-0.3,0.3-0.5,0.6-0.6c0.3,0,0.6,0.1,0.7,0.4&#10;&#9;&#9;c1,2.4,3.9,4.1,4,4.1c0.2,0.1,0.4,0.4,0.4,0.7l-0.5,4.6c0,0.2-0.2,0.4-0.4,0.6C240.3,162.4,240.2,162.4,240.1,162.4L240.1,162.4z&#10;&#9;&#9; M236.9,155c0.1,2.1,1,4,2.6,5.4l0.3-2.9C238.7,156.8,237.8,156,236.9,155L236.9,155z"/>
	<ellipse transform="matrix(0.3665 -0.9304 0.9304 0.3665 27.4032 320.904)" class="st1_personal-finance-45" cx="249.4" cy="140.3" rx="1.5" ry="0.6"/>
	<path class="st0_personal-finance-45" d="M222.8,155.6c0,0,14.7,2.5,19.7,11.2s6,39.6,8.7,42s9.5,14.6,9.4,15.2s-44,8.9-44,8.9s-1.3-10.1-4.4-23.2&#10;&#9;&#9;S210.4,154.9,222.8,155.6L222.8,155.6z"/>
	<path class="st1_personal-finance-45" d="M216.5,233.5c-0.1,0-0.3,0-0.4-0.1c-0.2-0.1-0.3-0.3-0.3-0.5c0-0.1-1.3-10.2-4.4-23.2&#10;&#9;&#9;c-2.5-10.5-2.4-42.3,5.8-52c1.3-1.8,3.4-2.9,5.7-2.8h0.1c0.6,0.1,15.1,2.7,20.1,11.5c2.9,5,4.4,16.6,5.7,26.9&#10;&#9;&#9;c0.9,6.6,1.8,14,2.8,14.9c2.3,2.1,9.9,14.7,9.6,15.9c-0.1,0.6-0.3,1-44.6,9.4L216.5,233.5z M222.5,156.3c-1.7,0.1-3.3,0.9-4.3,2.3&#10;&#9;&#9;c-7.3,8.8-8.1,39.4-5.5,50.8c2.6,11.1,4,20,4.3,22.6c15.8-3,38.6-7.4,42.6-8.4c-1.1-2.5-6.7-12.1-9-14.2c-1.3-1.2-2-6.5-3.3-15.8&#10;&#9;&#9;c-1.3-9.7-2.8-21.7-5.6-26.4c-4.6-8.1-18.3-10.7-19.1-10.8H222.5z"/>
	<polygon class="st1_personal-finance-45" points="242,165.9 240.8,170.2 242.5,170.8 243,200.6 249.2,206.1 251.9,196.8 243.9,170.9 245.1,169.5 &#9;"/>
	<path class="st0_personal-finance-45" d="M233.4,169.4c0.3,0.5,13.7,29.2,13.7,29.2l35.2-11.9l7,10.4c0,0-30.6,17.7-41.9,20s-31.8-39.9-30.9-44.1"/>
	<path class="st1_personal-finance-45" d="M246.4,217.8c-2.5,0-5.4-1.6-8.6-4.9c-10.3-10.3-22.9-36.3-22.1-40.1c0.1-0.4,0.4-0.6,0.8-0.6s0.6,0.4,0.6,0.8&#10;&#9;&#9;c0,0,0,0,0,0.1c-0.6,3,11.2,28.3,21.7,38.9c3.4,3.4,6.2,4.8,8.4,4.4c10.2-2,36.6-17,41.1-19.5l-6.3-9.3l-34.7,11.7&#10;&#9;&#9;c-0.3,0.1-0.7,0-0.9-0.4c-3.7-7.9-13.3-28.4-13.7-29.1c-0.2-0.3-0.1-0.8,0.2-1c0,0,0,0,0,0c0.3-0.2,0.7-0.1,0.9,0.2c0,0,0,0,0,0&#10;&#9;&#9;c0.3,0.5,10.8,22.8,13.5,28.7L282,186c0.3-0.1,0.6,0,0.8,0.3l7,10.4c0.1,0.2,0.1,0.4,0.1,0.6c0,0.2-0.2,0.4-0.3,0.4&#10;&#9;&#9;c-1.2,0.7-30.8,17.8-42.1,20.1C247.2,217.8,246.8,217.8,246.4,217.8L246.4,217.8z"/>
	<path class="st1_personal-finance-45" d="M248.1,217.3c-7.6,0-15-6.9-22-20.6c-0.2-0.3,0-0.8,0.3-0.9c0.3-0.2,0.8,0,0.9,0.3&#10;&#9;&#9;c7.1,13.8,14.4,20.4,21.7,19.8c7.3-0.6,23.3-10.3,23.5-10.4c0.3-0.2,0.8-0.2,1,0.2s0.2,0.8-0.2,1c0,0-0.1,0-0.1,0.1&#10;&#9;&#9;c-0.7,0.4-16.3,9.9-24.1,10.6C248.8,217.2,248.4,217.2,248.1,217.3L248.1,217.3z"/>
	<path class="st1_personal-finance-45" d="M241.5,336.1c0,0-3.9,9.7-3.6,10.6s14.1,23.7,16.4,17.4s-2.6-21.5-2.6-21.5L241.5,336.1L241.5,336.1z"/>
	<path class="st1_personal-finance-45" d="M253,365.9L253,365.9c-4.8-0.2-15.5-18.1-15.8-19s1.8-6.5,3.6-11c0.1-0.2,0.2-0.3,0.4-0.4&#10;&#9;&#9;c0.2-0.1,0.4,0,0.6,0.1l10.3,6.5c0.1,0.1,0.2,0.2,0.3,0.4c0.2,0.6,4.9,15.5,2.5,21.9C254.7,365.4,253.9,366,253,365.9L253,365.9z&#10;&#9;&#9; M241.8,337.2c-1.7,4.2-3.3,8.7-3.3,9.4c0.5,1.3,10.9,17.9,14.4,17.9c0.2,0,0.4,0,0.6-0.6c2.1-5.5-1.9-18.8-2.5-20.8L241.8,337.2z"/>
	<path class="st0_personal-finance-45" d="M269.8,252.2c-0.2,0-0.5-0.1-0.6-0.3l-12-19.8c-0.2-0.3-0.1-0.8,0.2-1s0.8-0.1,1,0.2c0,0,0,0,0,0l12,19.8&#10;&#9;&#9;c0.2,0.3,0.1,0.8-0.2,1c0,0,0,0,0,0C270,252.2,269.9,252.3,269.8,252.2L269.8,252.2z"/>
</g>
</svg>