<svg width="512" height="512" viewBox="0 0 512 512" style="color:#1550fa" xmlns="http://www.w3.org/2000/svg" class="h-full w-full"><rect width="512" height="512" x="0" y="0" rx="30" fill="transparent" stroke="transparent" stroke-width="0" stroke-opacity="100%" paint-order="stroke"></rect><svg width="256px" height="256px" viewBox="0 0 48 48" fill="#1550fa" x="128" y="128" role="img" style="display:inline-block;vertical-align:middle" xmlns="http://www.w3.org/2000/svg"><g fill="#1550fa"><path fill="none" stroke="currentColor" stroke-linecap="round" stroke-linejoin="round" d="M32.5 8.5v9a2 2 0 0 0 2 2h9v18a2 2 0 0 1-2 2h-35a2 2 0 0 1-2-2v-27a2 2 0 0 1 2-2Zm11 11l-11-11"/><path fill="none" stroke="currentColor" stroke-linecap="round" stroke-linejoin="round" d="M27.99 30H20l4-6l-3.99-6H28m13.62-.38V6a1.69 1.69 0 0 0-1.9-1.68L6.5 8.5"/></g></svg></svg>